<svg width="77" height="77" viewBox="0 0 77 77" fill="none" xmlns="http://www.w3.org/2000/svg">
<path d="M48.5162 56.1364C48.9152 56.2382 49.318 56.001 49.4198 55.6021L50.3552 51.9808C50.4299 51.6946 50.6683 51.4716 50.9703 51.4308L54.6693 50.8763C55.0766 50.8191 55.3529 50.4383 55.2957 50.031L54.7412 46.332C54.6934 46.0343 54.8342 45.7461 55.0929 45.5876L58.2741 43.6386C58.6237 43.4245 58.7347 42.9622 58.5206 42.6126L56.7686 39.753C56.6059 39.4873 56.6253 39.158 56.8101 38.9102L58.8443 36.2504C59.0958 35.9233 59.0338 35.4612 58.7067 35.2097L55.7395 32.9407C55.503 32.7586 55.3919 32.4517 55.4736 32.1612L56.4176 28.5538C56.5194 28.1549 56.2822 27.7521 55.8833 27.6503L52.2619 26.7149C51.9758 26.6402 51.7528 26.4018 51.712 26.0998L51.1575 22.4008C51.1003 21.9935 50.7194 21.7172 50.3121 21.7744L46.6131 22.3289C46.3155 22.3767 46.0273 22.2359 45.8688 21.9772L43.9198 18.796C43.7056 18.4464 43.2433 18.3353 42.8938 18.5495L40.0341 20.3014C39.7684 20.4642 39.4392 20.4448 39.1914 20.26L36.5316 18.2258C36.2044 17.9743 35.7423 18.0363 35.4908 18.3634L33.2218 21.3305C33.0398 21.5671 32.7328 21.6782 32.4424 21.5965L28.835 20.6525C28.4361 20.5507 28.0333 20.7879 27.9315 21.1868L26.9961 24.8082C26.9214 25.0943 26.6829 25.3173 26.381 25.3581L22.682 25.9126C22.2747 25.9698 21.9984 26.3507 22.0556 26.758L22.6101 30.4569C22.6578 30.7546 22.5171 31.0428 22.2584 31.2013L19.0701 33.1546C18.7205 33.3687 18.6095 33.831 18.8237 34.1806L20.5756 37.0402C20.7384 37.3059 20.7189 37.6352 20.5342 37.883L18.5 40.5428C18.2485 40.8699 18.3104 41.332 18.6376 41.5835L21.6047 43.8526C21.8413 44.0346 21.9524 44.3415 21.8707 44.632L20.9352 48.2533C20.8335 48.6523 21.0706 49.0551 21.4695 49.1569L25.0909 50.0923C25.3771 50.167 25.6001 50.4054 25.6408 50.7074L26.1954 54.4064C26.2526 54.8137 26.6334 55.09 27.0407 55.0328L30.7397 54.4783C31.0374 54.4305 31.3256 54.5713 31.484 54.83L33.4373 58.0182C33.6515 58.3678 34.1138 58.4788 34.4633 58.2647L37.323 56.5127C37.5887 56.35 37.9179 56.3694 38.1657 56.5542L40.8255 58.5884C41.1527 58.8399 41.6148 58.7779 41.8663 58.4508L44.1353 55.4836C44.3173 55.2471 44.6243 55.136 44.9147 55.2177L48.5162 56.1364Z" fill="url(#paint0_linear_56_1022)"/>
<path d="M45.7634 35.3856C44.6165 34.4942 43.1315 34.1734 41.7545 34.4572C41.6896 33.0527 41.0122 31.6928 39.8653 30.8014C37.8337 29.2224 35.0498 29.5583 33.4852 31.5713C31.5675 34.0386 32.2562 37.751 33.2593 43.4257L33.5534 45.0087L35.16 44.9031C40.9067 44.4745 44.6743 44.2256 46.592 41.7584C48.1565 39.7454 47.795 36.9647 45.7634 35.3856ZM35.2781 43.6244L35.0517 43.6413L34.5928 43.6715L34.5087 43.2193L34.4693 42.9961C33.997 40.3253 33.5891 38.0188 33.5441 36.2049C33.5005 34.4432 33.7933 33.2558 34.4934 32.3549C35.0449 31.6454 35.8183 31.198 36.6711 31.0951C37.5212 30.9926 38.3815 31.2409 39.0936 31.7944C39.917 32.4343 40.4376 33.4446 40.4861 34.4966L40.5555 35.9997L42.0293 35.696C43.0608 35.4834 44.1682 35.7385 44.9916 36.3785C45.7038 36.932 46.1567 37.7044 46.2672 38.5535C46.3779 39.4054 46.1352 40.2652 45.5838 40.9747C44.8836 41.8756 43.8052 42.4523 42.0873 42.8449C40.3185 43.249 37.9827 43.423 35.2781 43.6244Z" fill="white"/>
<defs>
<linearGradient id="paint0_linear_56_1022" x1="57.4497" y1="25.2608" x2="22.489" y2="46.6793" gradientUnits="userSpaceOnUse">
<stop stop-color="#BD86D6"/>
<stop offset="1" stop-color="#3B62A1"/>
</linearGradient>
</defs>
</svg>
