<svg width="46" height="35" viewBox="0 0 46 35" fill="none" xmlns="http://www.w3.org/2000/svg">
<path d="M21.6031 20.4872C21.7822 20.6757 21.9977 20.8258 22.2365 20.9283C22.4754 21.0308 22.7326 21.0837 22.9926 21.0837C23.2525 21.0837 23.5098 21.0308 23.7486 20.9283C23.9875 20.8258 24.203 20.6757 24.382 20.4872C27.6401 17.555 38.7173 8.14506 45.0226 2.79807C45.2116 2.63778 45.3312 2.41049 45.3562 2.16392C45.3812 1.91735 45.3097 1.67068 45.1567 1.47569C44.8017 1.02044 44.3484 0.651276 43.8307 0.395749C43.313 0.140222 42.7443 0.00493934 42.167 0L3.83732 0C3.25678 0.00205047 2.68429 0.135946 2.16306 0.391582C1.64183 0.647218 1.18548 1.01791 0.828444 1.47569C0.675457 1.67068 0.603966 1.91735 0.628981 2.16392C0.653995 2.41049 0.77357 2.63778 0.962598 2.79807C7.26783 8.14506 18.3451 17.555 21.6031 20.4872Z" fill="url(#paint0_linear_48_501)"/>
<path d="M45.4442 5.7493C45.2796 5.67325 45.0967 5.64548 44.9169 5.66923C44.7371 5.69298 44.5677 5.76726 44.4285 5.88346C37.4333 11.8246 28.5025 19.433 25.6853 21.9628C24.9696 22.6593 24.0104 23.0491 23.0118 23.0491C22.0131 23.0491 21.0539 22.6593 20.3383 21.9628C17.2527 19.1647 7.30618 10.6747 1.57589 5.7493C1.43033 5.62658 1.25151 5.55001 1.06224 5.52934C0.872973 5.50868 0.68184 5.54487 0.513225 5.63329C0.34461 5.72171 0.206157 5.85835 0.115528 6.02579C0.0248989 6.19323 -0.0137972 6.38387 0.0043759 6.57339L0.0043759 30.6636C0.0043759 31.6802 0.408205 32.6551 1.12703 33.3739C1.84585 34.0927 2.82078 34.4966 3.83734 34.4966H42.167C43.1836 34.4966 44.1585 34.0927 44.8773 33.3739C45.5962 32.6551 46 31.6802 46 30.6636V6.57339C45.9916 6.39834 45.9353 6.22895 45.8373 6.08365C45.7393 5.93835 45.6034 5.82271 45.4442 5.7493Z" fill="url(#paint1_linear_48_501)"/>
<defs>
<linearGradient id="paint0_linear_48_501" x1="0.624084" y1="10.5419" x2="45.3611" y2="10.5419" gradientUnits="userSpaceOnUse">
<stop stop-color="#BD99C9"/>
<stop offset="1" stop-color="#4AA8FE"/>
</linearGradient>
<linearGradient id="paint1_linear_48_501" x1="0" y1="20.0101" x2="46" y2="20.0101" gradientUnits="userSpaceOnUse">
<stop stop-color="#BD99C9"/>
<stop offset="1" stop-color="#4AA8FE"/>
</linearGradient>
</defs>
</svg>
