<svg version="1.2" xmlns="http://www.w3.org/2000/svg" viewBox="0 0 114 63" width="114" height="63"><style>.a{fill:#fff}.b{fill:#c7c8ca}.c{fill:#231f20}.d{fill:#a7a9ac}.e{fill:#ffc20e}.f{fill:#a30046}</style><path class="a" d="m22 10.2c-9.5 0-17.3 7.8-17.3 17.4 0 9.5 7.8 17.3 17.3 17.3h72.4c9.6 0 17.4-7.8 17.4-17.3 0-9.6-7.8-17.4-17.4-17.4z"/><path fill-rule="evenodd" class="b" d="m94.4 46.3h-72.4c-10.3 0-18.8-8.4-18.8-18.7 0-10.4 8.5-18.8 18.8-18.8h72.4c10.4 0 18.8 8.4 18.8 18.8 0 10.3-8.4 18.7-18.8 18.7zm-72.4-36.1c-9.5 0-17.3 7.8-17.3 17.4 0 9.5 7.8 17.3 17.3 17.3h72.4c9.6 0 17.4-7.8 17.4-17.3 0-9.6-7.8-17.4-17.4-17.4z"/><path fill-rule="evenodd" class="c" d="m90.8 22.1c0 2.8-2.3 5.1-5.1 5.1-2.8 0-5-2.2-5-5.1 0-2.8 2.2-5.1 5-5.1 2.8 0 5.1 2.3 5.1 5.1zm-2.5 0c0-1.5-1.1-2.6-2.6-2.6-1.4 0-2.6 1.1-2.6 2.6 0 1.4 1.2 2.6 2.6 2.6 1.5 0 2.6-1.2 2.6-2.6z"/><path fill-rule="evenodd" class="c" d="m67.5 22.1c0 2.8-2.3 5.1-5.1 5.1-2.8 0-5.1-2.2-5.1-5.1 0-2.8 2.3-5.1 5.1-5.1 2.8 0 5.1 2.3 5.1 5.1zm-2.5 0c0-1.5-1.2-2.6-2.6-2.6-1.5 0-2.6 1.1-2.6 2.6 0 1.4 1.1 2.6 2.6 2.6 1.4 0 2.6-1.2 2.6-2.6z"/><path class="c" d="m80.3 24.8c-0.3 0.2-0.8 0.2-1 0.2-0.9 0-1.1-0.3-1.1-1.1v-4.7h2.1v-2h-2.1v-2.7h-2.3l-0.5 2.7h-1.6-0.2c-1.3 0-2.3 0.9-2.9 2.1l-0.9-2.1h-1.6v9.8h2.8v-4.3c0-2.1 1.3-3.5 2.8-3.5h1.6v4.8c0 2.3 1.1 3.1 3.1 3.1 1.9 0 1.7-0.2 2.2-0.3l-0.4-2z"/><path class="c" d="m94.3 20.4v6.6h-2.8v-9.7h1.7l0.6 1.5"/><path class="c" d="m93.7 18.8c0.9-1 2.1-1.8 3.4-1.8 2.3 0 3.3 1.9 3.3 3.6v6.4h-2.9v-6.3c0-0.9-0.7-1.3-1.5-1.3-0.7 0-1.3 0.5-1.7 1"/><path class="c" d="m46.1 13.7h3.2l4.4 8.4v-8.4h2.7v13.3h-2.9l-4.7-9.2v9.2h-2.7z"/><path class="d" d="m108.9 8.8v0.5h-0.7v2.3h-0.6v-2.3h-0.7v-0.5z"/><path class="d" d="m109.3 11.6v-2.8h0.7l0.5 1.8 0.5-1.8h0.7v2.8h-0.4v-2.2l-0.6 2.2h-0.4l-0.6-2.2v2.2z"/><path class="d" d="m45.3 38.7l0.7-1c0.5 0.4 1.4 0.8 2.4 0.8 0.9 0 1.5-0.4 1.5-1.2 0-0.8-0.7-1.1-2-1.5-1.1-0.4-2.2-1-2.2-2.5 0-1.6 1.2-2.3 2.7-2.3 1.5 0 1.8 0.2 2.4 0.6l-0.5 1.1c-0.5-0.3-1.1-0.5-1.8-0.5-0.8 0-1.4 0.3-1.4 1 0 0.7 0.6 1 1.7 1.4 1.2 0.4 2.5 0.9 2.5 2.7 0 1.7-1 2.4-2.9 2.4-1.9 0-2.4-0.5-3-1"/><path class="d" d="m53.8 31.2h5v1.1h-3.6v2.3h2.8v1.2h-2.8v2.6h3.8v1.2h-5.2z"/><path class="d" d="m61.1 35.4c0-2.5 1.2-4.4 3.5-4.4 2.4 0 1.9 0.4 2.5 1.1l-0.8 0.9c-0.5-0.5-1-0.7-1.7-0.7-1.4 0-2 1.1-2 3.2 0 2.1 0.7 2.9 2 2.9 1.4 0 1.3-0.4 1.8-0.9l0.8 1c-0.6 0.7-1.4 1.2-2.6 1.2-2.4 0-3.5-1.9-3.5-4.4"/><path class="d" d="m69.6 36.4v-5.2h1.4v5.4c0 1.2 0.3 1.9 1.5 1.9 1.3 0 1.6-0.7 1.6-1.9v-5.4h1.4v5.2c0 2.1-0.8 3.3-3 3.3-2.1 0-2.9-1.2-2.9-3.3"/><path fill-rule="evenodd" class="d" d="m82.7 39.6l-1.6-3.6h-1.3v3.6h-1.5v-8.4h2.8c1.7 0 3.1 0.6 3.1 2.4 0 1.9-0.8 1.9-1.6 2.2l1.7 3.8zm-1.7-4.7c1.1 0 1.7-0.3 1.7-1.3 0-0.9-0.6-1.3-1.6-1.3h-1.3v2.6z"/><path class="d" d="m86.8 31.2h5v1.1h-3.6v2.3h2.8v1.2h-2.8v2.6h3.8v1.2h-5.2z"/><path fill-rule="evenodd" class="d" d="m96.5 31.2c2.8 0 4.1 1.5 4.1 4.1 0 2.7-1.4 4.3-4 4.3h-2.2v-8.4zm-0.1 7.2c2 0 2.7-0.9 2.7-3.1 0-2.1-0.6-3-2.5-3h-0.8v6.1z"/><path fill-rule="evenodd" class="e" d="m22 47.8c-11.2 0-20.3-9.1-20.3-20.2 0-11.2 9.1-20.3 20.3-20.3 11.2 0 20.3 9.1 20.3 20.3 0 11.1-9.1 20.2-20.3 20.2zm0-34.1c-3.8 0-7.2 1.5-9.9 4.1-2.6 2.6-4 6.1-4 9.8 0 3.7 1.4 7.1 4 9.8 2.7 2.6 6.1 4 9.9 4 3.7 0 7.2-1.4 9.8-4 2.6-2.7 4.1-6.1 4.1-9.8 0-3.7-1.5-7.2-4.1-9.8-2.6-2.6-6.1-4.1-9.8-4.1z"/><path class="e" d="m45.7 4.2h-1.6v1.6h1.6z"/><path class="e" d="m45.7 1h-1.6v1.6h1.6z"/><path class="e" d="m41.1 5.7h-1.5v1.6h1.5z"/><path class="c" d="m38.2 8.8h-1.5v1.4h1.5z"/><path class="c" d="m42.8 7.3h-1.7v1.5h1.7z"/><path class="c" d="m36.7 7.3h-1.5v1.5h1.5z"/><path class="c" d="m41.1 8.8h-1.5v1.4h1.5z"/><path class="c" d="m44.1 2.6h-1.6v1.6h1.6z"/><path class="c" d="m42.5 4.2h-2.9v1.5h2.9z"/><path class="c" d="m39.7 5.7h-1.5v3.1h1.5z"/><path class="c" d="m38.2 10.2v1.5h-1.5v-1.5h-2.5v1.1h-1.3v1.3h1.5v1.5h-1.5v-1.5h-1.5v2.3h-1.5v1.5h-1v1.5h-1.1c-1.2 1.8-4.3 7.4-5.2 9.7-3.4-4.6-5.9-6.4-8-7.1-1.1-0.3-2.4 0.9-0.6 2.8 4.2 4.6 5.5 8.4 6.8 11.4 0.7 1.6 3.7 1.9 4.3 0.3 1.3-3.5 3.1-7.4 5.4-10.5v-1.7h1.2v-1.5h1.2v-1.7h1.5v-1.7h-1.5v-1.5h1.5v1.5h1.4v-1.5h1.2v-1.8h1.3v-1.2h1.3v-3.2h-1.5z"/><path fill-rule="evenodd" class="d" d="m9.5 54.8h1.1v0.8c0.4-0.5 0.9-0.9 1.7-0.9 1.1 0 2.2 0.9 2.2 2.5 0 1.6-1.1 2.5-2.2 2.5-1.2 0-1.4-0.4-1.7-0.8v2.2h-1.1zm3.9 2.4c0-0.9-0.6-1.5-1.4-1.5-0.7 0-1.4 0.6-1.4 1.5 0 1 0.7 1.6 1.4 1.6 0.8 0 1.4-0.6 1.4-1.6z"/><path fill-rule="evenodd" class="d" d="m15.4 57.2c0-1.4 1.1-2.5 2.6-2.5 1.5 0 2.6 1.1 2.6 2.5 0 1.4-1.1 2.5-2.6 2.5-1.5 0-2.6-1.1-2.6-2.5zm4.1 0c0-0.9-0.6-1.6-1.5-1.6-0.9 0-1.4 0.7-1.4 1.6 0 0.8 0.6 1.6 1.5 1.6 0.9 0 1.5-0.7 1.5-1.6z"/><path class="d" d="m21.2 54.8h1.1l1 3.3 1-3.3h1l1.1 3.3 1-3.3h1.1l-1.6 4.8h-1l-1.1-3.3-1.1 3.3h-0.9z"/><path fill-rule="evenodd" class="d" d="m29.1 57.2c0-1.4 1-2.5 2.3-2.5 1.4 0 2.4 1.2 2.4 2.6 0 1.4 0 0.2 0 0.3h-3.6c0.1 0.8 0.7 1.2 1.4 1.2 0.7 0 0.9-0.2 1.3-0.5l0.6 0.5c-0.4 0.6-1.1 0.9-2 0.9-1.4 0-2.4-1-2.4-2.5m3.6-0.4c-0.1-0.7-0.5-1.2-1.3-1.2-0.7 0-1.1 0.5-1.2 1.2z"/><path class="d" d="m34.9 54.8h1.1v1.1c0.3-0.8 0.9-1.2 1.7-1.2v1.2h-0.1c-0.9 0-1.6 0.6-1.6 1.9v1.8h-1.1v-4.8z"/><path fill-rule="evenodd" class="d" d="m38.4 57.2c0-1.4 1-2.5 2.4-2.5 1.4 0 2.3 1.2 2.3 2.6 0 1.4 0 0.2 0 0.3h-3.5c0.1 0.8 0.6 1.2 1.3 1.2 0.8 0 1-0.2 1.4-0.5l0.6 0.5c-0.5 0.6-1.1 0.9-2 0.9-1.4 0-2.5-1-2.5-2.5m3.6-0.4c-0.1-0.7-0.5-1.2-1.2-1.2-0.8 0-1.2 0.5-1.3 1.2z"/><path fill-rule="evenodd" class="d" d="m44 57.2q0 0 0 0 0 0 0 0m2.3-2.5c1.2 0 1.3 0.3 1.7 0.8v-2.6h1.1v6.7h-1.1v-0.8c-0.4 0.4-0.9 0.9-1.7 0.9-1.1 0-2.3-0.9-2.3-2.5 0-1.6 1.1-2.5 2.3-2.5zm1.6 2.5c0-1-0.6-1.6-1.4-1.6-0.7 0-1.4 0.6-1.4 1.6 0 1 0.7 1.6 1.4 1.6 0.8 0 1.4-0.7 1.4-1.6z"/><path fill-rule="evenodd" class="d" d="m54.3 58.9v0.7h-1.1v-6.7h1.1v2.7c0.3-0.5 0.8-0.9 1.6-0.9 1.1 0 2.3 0.9 2.3 2.5 0 1.6-1.1 2.5-2.3 2.5-1.2 0-1.3-0.4-1.6-0.8zm2.8-1.7c0-1-0.7-1.6-1.4-1.6-0.8 0-1.4 0.7-1.4 1.6 0 1 0.6 1.6 1.4 1.6 0.7 0 1.4-0.6 1.4-1.6z"/><path class="d" d="m59 60.8l0.3-0.8q0.4 0.2 0.7 0.2c0.2 0 0.5-0.2 0.7-0.6l-2.1-4.8h1.2l1.4 3.6 1.3-3.6h1.1l-1.9 4.9c-0.4 1-0.8 1.4-1.6 1.4-0.8 0-0.8-0.1-1.1-0.3"/><path class="f" d="m66.9 53.2h1.3l1.9 4.9 1.9-4.9h1.3l-2.7 6.5h-1z"/><path fill-rule="evenodd" class="f" d="m73.5 57.2c0-1.4 1-2.5 2.4-2.5 1.4 0 2.3 1.2 2.3 2.6 0 1.4 0 0.2 0 0.3h-3.6c0.1 0.8 0.7 1.2 1.4 1.2 0.7 0 0.9-0.2 1.3-0.5l0.7 0.5c-0.5 0.6-1.1 0.9-2 0.9-1.4 0-2.5-1-2.5-2.5m3.6-0.4c-0.1-0.7-0.5-1.2-1.2-1.2-0.8 0-1.2 0.5-1.3 1.2z"/><path class="f" d="m79.4 54.8h1.1v1.1c0.3-0.8 0.8-1.2 1.7-1.2v1.2h-0.1c-0.9 0-1.6 0.6-1.6 1.9v1.8h-1.1z"/><path class="f" d="m83.1 53h1.2v1.1h-1.2zm0 1.7h1.1v4.9h-1.1z"/><path class="f" d="m85.4 58.7l0.7-0.8c0.6 0.5 1.2 0.8 2 0.8 0.8 0 1.1-0.3 1.1-0.8 0-0.5-0.2-0.7-1.4-1-1.4-0.3-2.1-0.7-2.1-1.9 0-1.1 0.9-1.9 2.2-1.9 1.2 0 1.6 0.3 2.3 0.8l-0.6 0.9c-0.6-0.4-1.2-0.7-1.7-0.7-0.6 0-1.1 0.4-1.1 0.8 0 0.5 0.3 0.7 1.5 1 1.4 0.3 2.1 0.8 2.1 1.9 0 1.2-1 1.9-2.3 1.9-1.4 0-2-0.3-2.7-1"/><path class="f" d="m91.6 53h1.3v1.1h-1.3zm0.1 1.7h1.1v4.9h-1.1z"/><path fill-rule="evenodd" class="f" d="m94.2 60.5l0.4-0.8c0.6 0.3 1.1 0.5 1.8 0.5 1 0 1.5-0.5 1.5-1.5v-0.4c-0.4 0.5-0.9 0.9-1.7 0.9-1.1 0-2.2-0.9-2.2-2.3 0-1.4 1.1-2.3 2.2-2.3 1.1 0 1.3 0.4 1.7 0.8v-0.7h1.1v3.9q0 1.2-0.6 1.8c-0.4 0.4-1.2 0.7-2 0.7-0.9 0-1.6-0.3-2.2-0.6m3.7-3.6c0-0.8-0.7-1.3-1.4-1.3-0.8 0-1.4 0.5-1.4 1.3 0 0.9 0.6 1.4 1.4 1.4 0.7 0 1.4-0.6 1.4-1.4z"/><path class="f" d="m100.4 54.8h1.1v0.7c0.3-0.5 0.8-0.8 1.5-0.8 1.1 0 1.8 0.7 1.8 1.8v3.1h-1.1v-2.8c0-0.7-0.4-1.1-1.1-1.1-0.6 0-1.1 0.4-1.1 1.2v2.7h-1.1v-4.8z"/></svg>