<svg width="217" height="280" viewBox="0 0 217 280" fill="none" xmlns="http://www.w3.org/2000/svg">
<path d="M73.0425 119.247C63.4689 119.247 55.6683 127.025 55.6683 136.571C55.6683 146.116 63.4689 153.894 73.0425 153.894H145.411C154.985 153.894 162.785 146.116 162.785 136.571C162.785 127.025 154.985 119.247 145.411 119.247H73.0425Z" fill="white"/>
<path d="M145.411 155.343H73.0425C62.6534 155.343 54.2145 146.929 54.2145 136.571C54.2145 126.212 62.6534 117.798 73.0425 117.798H145.411C155.8 117.798 164.239 126.212 164.239 136.571C164.239 146.929 155.8 155.343 145.411 155.343ZM73.0425 119.247C63.469 119.247 55.6683 127.025 55.6683 136.571C55.6683 146.116 63.469 153.894 73.0425 153.894H145.411C154.985 153.894 162.785 146.116 162.785 136.571C162.785 127.025 154.985 119.247 145.411 119.247H73.0425Z" fill="#C7C8CA"/>
<path d="M136.724 126.035C133.923 126.035 131.654 128.298 131.654 131.126C131.654 133.955 133.923 136.182 136.724 136.182C139.525 136.182 141.795 133.919 141.795 131.126C141.795 128.333 139.525 126.035 136.724 126.035ZM136.724 133.707C135.27 133.707 134.1 132.54 134.1 131.091C134.1 129.641 135.27 128.475 136.724 128.475C138.178 128.475 139.348 129.641 139.348 131.091C139.348 132.54 138.178 133.707 136.724 133.707Z" fill="#231F20"/>
<path d="M113.393 126.035C110.592 126.035 108.323 128.298 108.323 131.126C108.323 133.955 110.592 136.182 113.393 136.182C116.194 136.182 118.499 133.919 118.499 131.126C118.499 128.333 116.23 126.035 113.393 126.035ZM113.393 133.707C111.939 133.707 110.769 132.54 110.769 131.091C110.769 129.641 111.939 128.475 113.393 128.475C114.847 128.475 116.017 129.641 116.017 131.091C116.017 132.54 114.847 133.707 113.393 133.707Z" fill="#231F20"/>
<path d="M131.299 133.848C130.98 133.955 130.484 134.025 130.306 134.025C129.42 134.025 129.243 133.742 129.243 132.894V128.192H131.335V126.247H129.243V123.49H126.902L126.406 126.247H124.775H124.633C123.286 126.247 122.293 127.061 121.655 128.333L120.839 126.247H119.173V135.97H122.045V131.727C122.045 129.606 123.321 128.227 124.81 128.192H126.371V133.035C126.371 135.298 127.541 136.146 129.455 136.146C131.37 136.146 131.193 135.934 131.654 135.793L131.299 133.813V133.848Z" fill="#231F20"/>
<path d="M145.305 129.359V136.005H142.504V126.283H144.206L144.773 127.768" fill="#231F20"/>
<path d="M144.738 127.768C145.589 126.778 146.759 126.035 148.106 126.035C150.446 126.035 151.368 127.874 151.368 129.606V136.005H148.496V129.677C148.496 128.828 147.787 128.404 147.042 128.404C146.298 128.404 145.73 128.864 145.269 129.359" fill="#231F20"/>
<path d="M97.1182 122.747H100.309L104.706 131.091V122.747H107.365V136.005H104.458L99.7775 126.848V136.005H97.1182V122.747Z" fill="#231F20"/>
<path d="M159.878 117.763V118.258H159.169V120.591H158.637V118.258H157.928V117.763H159.878Z" fill="#A7A9AC"/>
<path d="M160.268 120.591V117.763H160.977L161.473 119.601L161.97 117.763H162.715V120.591H162.254V118.399L161.686 120.591H161.296L160.729 118.399H160.693V120.591H160.268Z" fill="#A7A9AC"/>
<path d="M96.3381 147.742L97.0118 146.717C97.5436 147.106 98.3592 147.495 99.352 147.495C100.345 147.495 100.912 147.071 100.912 146.293C100.912 145.515 100.167 145.197 98.9265 144.773C97.8273 144.384 96.7281 143.818 96.7281 142.263C96.7281 140.707 97.8982 140 99.4229 140C100.948 140 101.231 140.212 101.834 140.566L101.302 141.662C100.806 141.379 100.167 141.202 99.4583 141.202C98.7492 141.202 98.0755 141.52 98.0755 142.227C98.0755 142.934 98.6783 143.217 99.8129 143.606C100.983 143.995 102.295 144.525 102.295 146.258C102.295 147.99 101.267 148.662 99.3874 148.662C97.5082 148.662 96.9763 148.167 96.3735 147.707" fill="#A7A9AC"/>
<path d="M104.777 140.177H109.812V141.343H106.195V143.641H109.032V144.773H106.195V147.424H110.025V148.591H104.777V140.177Z" fill="#A7A9AC"/>
<path d="M112.081 144.384C112.081 141.909 113.251 140.035 115.627 140.035C118.003 140.035 117.506 140.354 118.109 141.061L117.258 142.015C116.762 141.52 116.336 141.273 115.627 141.273C114.244 141.273 113.606 142.404 113.606 144.49C113.606 146.576 114.28 147.424 115.627 147.424C116.974 147.424 116.903 147.035 117.364 146.54L118.215 147.46C117.613 148.167 116.832 148.662 115.627 148.662C113.18 148.662 112.081 146.823 112.081 144.349" fill="#A7A9AC"/>
<path d="M120.556 145.374V140.177H122.009V145.621C122.009 146.788 122.293 147.53 123.534 147.53C124.775 147.53 125.059 146.788 125.059 145.621V140.177H126.512V145.374C126.512 147.46 125.697 148.697 123.534 148.697C121.371 148.697 120.591 147.46 120.591 145.374" fill="#A7A9AC"/>
<path d="M135.306 148.591H133.746L132.115 145.02H130.767V148.591H129.349V140.177H132.115C133.817 140.177 135.164 140.778 135.164 142.616C135.164 144.455 134.419 144.525 133.568 144.808L135.341 148.591H135.306ZM132.044 143.924C133.107 143.924 133.675 143.571 133.675 142.616C133.675 141.662 133.108 141.343 132.15 141.343H130.803V143.924H132.079H132.044Z" fill="#A7A9AC"/>
<path d="M137.752 140.177H142.787V141.343H139.171V143.641H142.007V144.773H139.171V147.424H143V148.591H137.752V140.177Z" fill="#A7A9AC"/>
<path d="M145.411 140.177H147.503C150.269 140.177 151.581 141.662 151.581 144.348C151.581 147.035 150.233 148.591 147.574 148.591H145.376V140.177H145.411ZM147.432 147.424C149.418 147.424 150.092 146.505 150.092 144.348C150.092 142.192 149.56 141.343 147.61 141.343H146.83V147.424H147.432Z" fill="#A7A9AC"/>
<path d="M72.9716 156.828C61.767 156.828 52.6544 147.742 52.6544 136.571C52.6544 125.399 61.767 116.313 72.9716 116.313C84.1762 116.313 93.2887 125.399 93.2887 136.571C93.2887 147.742 84.1762 156.828 72.9716 156.828ZM72.9716 122.712C69.2485 122.712 65.7737 124.162 63.1498 126.778C60.526 129.394 59.0722 132.859 59.0722 136.571C59.0722 140.283 60.526 143.747 63.1498 146.364C65.7737 148.98 69.2485 150.429 72.9716 150.429C76.6946 150.429 80.1695 148.98 82.7933 146.364C85.4172 143.747 86.8709 140.283 86.8709 136.571C86.8709 132.859 85.4172 129.394 82.7933 126.778C80.1695 124.162 76.6592 122.712 72.9716 122.712Z" fill="#FFC20E"/>
<path d="M96.6926 113.167H95.097V114.758H96.6926V113.167Z" fill="#FFC20E"/>
<path d="M96.6926 110.02H95.097V111.611H96.6926V110.02Z" fill="#FFC20E"/>
<path d="M92.1186 114.722H90.6294V116.278H92.1186V114.722Z" fill="#FFC20E"/>
<path d="M89.2111 117.763H87.7219V119.248H89.2111V117.763Z" fill="#231F20"/>
<path d="M93.7851 116.278H92.1186V117.763H93.7851V116.278Z" fill="#231F20"/>
<path d="M87.7219 116.349H86.2327V117.763H87.7219V116.349Z" fill="#231F20"/>
<path d="M92.1186 117.763H90.6294V119.248H92.1186V117.763Z" fill="#231F20"/>
<path d="M95.0971 111.611H93.5369V113.167H95.0971V111.611Z" fill="#231F20"/>
<path d="M93.5369 113.167H90.6294V114.722H93.5369V113.167Z" fill="#231F20"/>
<path d="M90.6649 114.722H89.2111V117.763H90.6649V114.722Z" fill="#231F20"/>
<path d="M89.2111 119.247V120.732H87.7219V119.247H85.2399V120.308H83.9279V121.616H85.4172V123.101H83.9279V121.616H82.3678V123.914H80.8786V125.399H79.8858V126.884H78.7866C77.581 128.687 74.4962 134.343 73.5743 136.641C70.2413 132.01 67.6529 130.172 65.5964 129.535C64.4972 129.217 63.1853 130.384 64.9936 132.293C69.1776 136.889 70.525 140.707 71.8015 143.747C72.4752 145.338 75.4891 145.586 76.0918 143.96C77.3683 140.495 79.2476 136.641 81.4814 133.46V131.798H82.6515V130.313H83.8925V128.581H85.3817V126.919H83.8925V125.399H85.3817V126.919H86.8355V125.434H88.0056V123.631H89.3175V122.394H90.594V119.247H89.1402H89.2111Z" fill="#231F20"/>
<path d="M60.526 163.758H61.6252V164.571C61.9798 164.076 62.4762 163.651 63.2562 163.651C64.3909 163.651 65.5255 164.571 65.5255 166.162C65.5255 167.788 64.4263 168.707 63.2562 168.707C62.0861 168.707 61.9443 168.318 61.6252 167.859V170.086H60.526V163.793V163.758ZM64.4263 166.197C64.4263 165.242 63.7881 164.641 63.0435 164.641C62.2989 164.641 61.6252 165.278 61.6252 166.197C61.6252 167.151 62.2989 167.753 63.0435 167.753C63.7881 167.753 64.4263 167.151 64.4263 166.197Z" fill="#A7A9AC"/>
<path d="M66.4474 166.232C66.4474 164.818 67.5466 163.687 69.0358 163.687C70.525 163.687 71.6242 164.818 71.6242 166.197C71.6242 167.576 70.525 168.742 69.0358 168.742C67.5466 168.742 66.4474 167.611 66.4474 166.232ZM70.525 166.232C70.525 165.349 69.9222 164.641 69.0358 164.641C68.1493 164.641 67.582 165.349 67.582 166.197C67.582 167.045 68.1848 167.788 69.0712 167.788C69.9577 167.788 70.5605 167.081 70.5605 166.232" fill="#A7A9AC"/>
<path d="M72.1561 163.758H73.3262L74.2835 167.081L75.3472 163.758H76.3046L77.4038 167.081L78.3966 163.758H79.4958L77.9002 168.636H76.9074L75.8436 165.348L74.7445 168.636H73.7517L72.1561 163.758Z" fill="#A7A9AC"/>
<path d="M80.063 166.197C80.063 164.783 81.0559 163.651 82.4387 163.651C83.8215 163.651 84.7789 164.854 84.7789 166.268C84.7789 167.682 84.7789 166.48 84.7789 166.586H81.1977C81.3041 167.364 81.8714 167.823 82.5805 167.823C83.2897 167.823 83.5024 167.611 83.8925 167.258L84.5307 167.823C84.0697 168.389 83.4315 168.742 82.5451 168.742C81.1268 168.742 80.063 167.717 80.063 166.232M83.6797 165.843C83.6088 165.136 83.1833 164.571 82.4387 164.571C81.6941 164.571 81.2686 165.101 81.1622 165.843H83.6443H83.6797Z" fill="#A7A9AC"/>
<path d="M85.9136 163.758H87.0128V164.854C87.3319 164.146 87.8637 163.651 88.7147 163.687V164.854H88.6438C87.651 164.854 86.9773 165.49 86.9773 166.763V168.601H85.8781V163.758H85.9136Z" fill="#A7A9AC"/>
<path d="M89.4238 166.197C89.4238 164.783 90.4166 163.651 91.7995 163.651C93.1823 163.651 94.1397 164.854 94.1397 166.268C94.1397 167.682 94.1397 166.48 94.1397 166.586H90.5585C90.6648 167.364 91.2322 167.823 91.9413 167.823C92.6505 167.823 92.8632 167.611 93.2532 167.258L93.8915 167.823C93.4305 168.389 92.7923 168.742 91.9059 168.742C90.4876 168.742 89.4238 167.717 89.4238 166.232M93.005 165.843C92.9341 165.136 92.5086 164.571 91.764 164.571C91.0194 164.571 90.5939 165.101 90.4876 165.843H92.9696H93.005Z" fill="#A7A9AC"/>
<path d="M95.0261 166.197C95.0261 164.571 96.1253 163.651 97.2954 163.651C98.4655 163.651 98.6073 164.04 98.9619 164.5V161.884H100.061V168.566H98.9619V167.752C98.6073 168.247 98.1109 168.672 97.2954 168.672C96.1608 168.672 95.0261 167.752 95.0261 166.162M98.9264 166.197C98.9264 165.242 98.2528 164.641 97.5081 164.641C96.7635 164.641 96.1253 165.242 96.1253 166.197C96.1253 167.151 96.7635 167.752 97.5081 167.752C98.2528 167.752 98.9264 167.116 98.9264 166.197Z" fill="#A7A9AC"/>
<path d="M105.273 167.859V168.601H104.174V161.919H105.273V164.571C105.628 164.076 106.124 163.652 106.904 163.652C108.039 163.652 109.174 164.571 109.174 166.162C109.174 167.788 108.075 168.707 106.904 168.707C105.734 168.707 105.592 168.318 105.273 167.859ZM108.075 166.197C108.075 165.242 107.436 164.641 106.692 164.641C105.947 164.641 105.273 165.278 105.273 166.197C105.273 167.152 105.947 167.753 106.692 167.753C107.436 167.753 108.075 167.152 108.075 166.197Z" fill="#A7A9AC"/>
<path d="M109.954 169.803L110.344 168.99C110.557 169.096 110.769 169.167 110.982 169.167C111.195 169.167 111.478 169.025 111.656 168.601L109.635 163.758H110.805L112.188 167.364L113.464 163.758H114.634L112.719 168.742C112.329 169.732 111.904 170.086 111.124 170.086C110.344 170.086 110.308 169.98 109.989 169.803" fill="#A7A9AC"/>
<path d="M117.932 162.202H119.173L121.123 167.116L123.038 162.202H124.279L121.584 168.672H120.591L117.932 162.202Z" fill="#A30046"/>
<path d="M124.491 166.197C124.491 164.783 125.484 163.651 126.867 163.651C128.25 163.651 129.207 164.854 129.207 166.268C129.207 167.682 129.207 166.48 129.207 166.586H125.626C125.732 167.364 126.3 167.823 127.009 167.823C127.718 167.823 127.931 167.611 128.321 167.258L128.959 167.823C128.498 168.389 127.86 168.742 126.973 168.742C125.555 168.742 124.491 167.717 124.491 166.232M128.108 165.843C128.037 165.136 127.612 164.571 126.867 164.571C126.122 164.571 125.697 165.101 125.591 165.843H128.073H128.108Z" fill="#A30046"/>
<path d="M130.377 163.758H131.476V164.854C131.796 164.146 132.327 163.651 133.214 163.687V164.854H133.143C132.186 164.854 131.476 165.49 131.476 166.763V168.601H130.377V163.758Z" fill="#A30046"/>
<path d="M134.1 161.99H135.306V163.05H134.1V161.99ZM134.136 163.758H135.235V168.601H134.136V163.758Z" fill="#A30046"/>
<path d="M136.405 167.682L137.079 166.869C137.682 167.399 138.32 167.717 139.1 167.717C139.88 167.717 140.234 167.399 140.234 166.904C140.234 166.444 139.986 166.162 138.781 165.914C137.398 165.596 136.653 165.172 136.653 164.005C136.653 162.874 137.575 162.131 138.852 162.131C140.128 162.131 140.518 162.414 141.192 162.944L140.589 163.793C140.022 163.369 139.419 163.121 138.852 163.121C138.284 163.121 137.788 163.475 137.788 163.899C137.788 164.429 138.072 164.641 139.313 164.924C140.66 165.242 141.369 165.737 141.369 166.798C141.369 168 140.412 168.742 139.064 168.742C137.717 168.742 137.15 168.389 136.37 167.717" fill="#A30046"/>
<path d="M142.646 161.99H143.851V163.05H142.646V161.99ZM142.681 163.758H143.78V168.601H142.681V163.758Z" fill="#A30046"/>
<path d="M145.199 169.52L145.624 168.672C146.156 168.99 146.688 169.167 147.361 169.167C148.354 169.167 148.886 168.672 148.886 167.682V167.293C148.496 167.823 147.964 168.177 147.184 168.177C146.05 168.177 144.986 167.328 144.986 165.914C144.986 164.465 146.05 163.616 147.184 163.616C148.319 163.616 148.496 164.005 148.886 164.429V163.722H149.985V167.576C149.985 168.389 149.773 168.99 149.383 169.414C148.992 169.838 148.248 170.051 147.397 170.051C146.546 170.051 145.837 169.838 145.234 169.485M148.886 165.95C148.886 165.136 148.248 164.606 147.468 164.606C146.688 164.606 146.085 165.136 146.085 165.95C146.085 166.763 146.688 167.293 147.468 167.293C148.248 167.293 148.886 166.727 148.886 165.95Z" fill="#A30046"/>
<path d="M151.404 163.758H152.503V164.5C152.822 164.04 153.283 163.651 154.027 163.651C155.127 163.651 155.765 164.394 155.765 165.525V168.601H154.666V165.843C154.666 165.101 154.276 164.677 153.637 164.677C152.999 164.677 152.538 165.136 152.538 165.879V168.601H151.439V163.758H151.404Z" fill="#A30046"/>
</svg>
