<svg width="96" height="46" viewBox="0 0 96 46" fill="none" xmlns="http://www.w3.org/2000/svg">
<path d="M25.4415 8.89062H35.1763V10.7594H31.4322V20.8509H29.1857V10.7594H25.4415V8.89062ZM34.6147 12.0676H36.4868V13.7495C36.4868 13.5626 36.674 13.3757 36.8612 13.002C37.0484 12.6282 37.2356 12.6282 37.4228 12.4413C37.61 12.2544 37.9844 12.0676 38.1716 12.0676C38.3588 11.8807 38.7333 11.8807 39.1077 11.8807C39.2949 11.8807 39.4821 11.8807 39.4821 11.8807H39.6693V13.7495C39.4821 13.7495 39.4821 13.7495 39.2949 13.7495C39.1077 13.7495 39.1077 13.7495 38.9205 13.7495C38.5461 13.7495 38.3588 13.7495 37.9844 13.9363C37.61 14.1232 37.4228 14.3101 37.2356 14.497C37.0484 14.6839 36.8612 15.0576 36.674 15.4314C36.4868 15.8051 36.4868 16.1789 36.4868 16.7395V20.8509H34.6147V12.0676ZM48.468 20.8509H46.596V19.7296C46.4088 20.1033 46.0344 20.4771 45.4727 20.8509C45.0983 21.0377 44.5367 21.2246 43.9751 21.2246C42.8518 21.2246 42.103 21.0377 41.5414 20.2902C40.9798 19.5427 40.7925 18.7952 40.7925 17.6739V12.2544H42.6646V17.487C42.6646 18.2346 42.8518 18.7952 43.039 19.169C43.4134 19.5427 43.7879 19.7296 44.3495 19.7296C44.7239 19.7296 45.0983 19.7296 45.2855 19.5427C45.4727 19.3558 45.8471 19.169 45.8471 18.9821C46.0344 18.7952 46.2216 18.6083 46.2216 18.2346C46.2216 17.8608 46.4088 17.6739 46.4088 17.3002V12.2544H48.2808V20.8509H48.468ZM51.6506 18.0477C51.6506 18.6083 51.8378 18.9821 52.2122 19.169C52.5866 19.3558 52.961 19.5427 53.5227 19.5427C53.7099 19.5427 53.8971 19.5427 54.0843 19.5427C54.2715 19.5427 54.4587 19.5427 54.6459 19.3558C54.8331 19.3558 55.0203 19.169 55.2075 18.9821C55.3947 18.7952 55.3947 18.6083 55.3947 18.4214C55.3947 18.2346 55.2075 18.0477 55.2075 17.8608C55.0203 17.6739 54.8331 17.6739 54.6459 17.487C54.4587 17.487 54.0843 17.3002 53.7099 17.3002C53.3354 17.3002 52.961 17.1133 52.7738 17.1133C52.3994 17.1133 52.025 16.9264 51.8378 16.7395C51.6506 16.5527 51.2762 16.5527 50.9017 16.3658C50.7145 16.1789 50.3401 15.992 50.3401 15.6183C50.1529 15.2445 50.1529 14.8707 50.1529 14.497C50.1529 13.9364 50.3401 13.5626 50.5273 13.3757C50.7145 13.1888 51.089 12.8151 51.4634 12.6282C51.8378 12.4413 52.2122 12.2544 52.5866 12.2544C52.961 12.2544 53.5227 12.0676 53.8971 12.0676C54.2715 12.0676 54.8331 12.0676 55.2075 12.2544C55.5819 12.2544 55.9564 12.4413 56.3308 12.6282C56.7052 12.8151 56.8924 13.1888 57.0796 13.3757C57.2668 13.7495 57.454 14.1232 57.454 14.6839H55.3947C55.3947 14.3101 55.0203 13.9364 54.8331 13.7495C54.2715 13.5626 53.8971 13.3757 53.5227 13.3757C53.3354 13.3757 53.1482 13.3757 52.961 13.3757C52.7738 13.3757 52.5866 13.3757 52.3994 13.5626C52.2122 13.5626 52.025 13.7495 52.025 13.7495C51.8378 13.9364 51.8378 13.9363 51.8378 14.1232C51.8378 14.3101 51.8378 14.497 52.025 14.6839C52.2122 14.8707 52.3994 14.8707 52.5866 15.0576C52.7738 15.0576 53.1482 15.2445 53.5227 15.2445C53.8971 15.2445 54.2715 15.4314 54.6459 15.4314C55.0203 15.4314 55.3947 15.6183 55.5819 15.8051C55.9563 15.992 56.1436 15.992 56.518 16.1789C56.8924 16.3658 57.0796 16.5527 57.0796 16.9264C57.2668 17.3002 57.2668 17.487 57.2668 18.0477C57.2668 18.6083 57.0796 18.9821 56.8924 19.3558C56.7052 19.7296 56.3308 19.9165 55.9563 20.2902C55.7691 20.664 55.3947 20.8509 55.0203 20.8509C54.6459 20.8509 54.0843 21.0377 53.7099 21.0377C53.1482 21.0377 52.5866 21.0377 52.2122 20.8509C51.8378 20.664 51.2762 20.4771 51.089 20.2902C50.7145 20.1033 50.5273 19.7296 50.3401 19.3558C49.9657 18.9821 49.7785 18.6083 49.7785 18.0477H51.6506ZM58.0156 12.0676H59.5133V9.63814H61.3854V12.2544H63.0702V13.7495H61.3854V18.4214C61.3854 18.6083 61.3854 18.7952 61.3854 18.9821C61.3854 19.169 61.3854 19.169 61.5726 19.3558C61.7598 19.5427 61.7598 19.5427 61.7598 19.5427C61.947 19.5427 62.1342 19.5427 62.3214 19.5427C62.5086 19.5427 62.5086 19.5427 62.6958 19.5427C62.883 19.5427 62.883 19.5427 63.0702 19.5427V20.8509C62.883 20.8509 62.6958 20.8509 62.5086 20.8509C62.3214 20.8509 62.1342 20.8509 61.947 20.8509C61.3854 20.8509 61.011 20.8509 60.8237 20.664C60.4493 20.664 60.2621 20.4771 60.0749 20.2902C59.8877 20.1033 59.7005 19.9165 59.7005 19.5427C59.7005 19.3558 59.5133 18.9821 59.5133 18.6083V13.5626H58.0156V12.0676ZM64.3807 12.0676H66.2528V13.3757C66.44 12.8151 66.8144 12.4413 67.376 12.2544C67.9376 12.0676 68.312 11.8807 68.8737 11.8807C69.6225 11.8807 70.1841 12.0676 70.7457 12.2544C71.3074 12.4413 71.6818 12.8151 72.0562 13.1888C72.4306 13.5626 72.6178 14.1232 72.805 14.6839C72.9922 15.2445 72.9922 15.8051 72.9922 16.5527C72.9922 17.1133 72.9922 17.6739 72.805 18.2346C72.6178 18.7952 72.4306 19.169 72.0562 19.7296C71.6818 20.1033 71.3074 20.4771 70.9329 20.664C70.3713 20.8509 69.9969 21.0377 69.2481 21.0377C69.0609 21.0377 68.6865 21.0377 68.4993 21.0377C68.312 21.0377 67.9376 20.8509 67.7504 20.8509C67.5632 20.664 67.1888 20.664 67.0016 20.4771C66.8144 20.2902 66.6272 20.1033 66.44 19.9165V24.2147H64.5679V12.0676H64.3807ZM71.1202 16.5527C71.1202 16.1789 71.1202 15.8051 70.9329 15.4314C70.7457 15.0576 70.7457 14.6839 70.5585 14.497C70.3713 14.3101 70.1841 13.9364 69.8097 13.7495C69.4353 13.5626 69.2481 13.5626 68.6865 13.5626C67.9376 13.5626 67.1888 13.7495 66.8144 14.3101C66.44 14.8707 66.2528 15.6183 66.2528 16.5527C66.2528 16.9264 66.2528 17.487 66.44 17.6739C66.6272 18.0477 66.6272 18.4214 67.0016 18.6083C67.1888 18.7952 67.376 19.169 67.7504 19.169C68.1248 19.3558 68.312 19.3558 68.6865 19.3558C69.0609 19.3558 69.4353 19.3558 69.8097 19.169C70.1841 18.9821 70.3713 18.7952 70.5585 18.4214C70.7457 18.0477 70.9329 17.8608 70.9329 17.487C70.9329 17.3002 71.1202 16.9264 71.1202 16.5527ZM74.4899 8.89062H76.362V10.7594H74.4899V8.89062ZM74.4899 12.0676H76.362V20.8509H74.4899V12.0676ZM78.0468 8.89062H79.9189V20.8509H78.0468V8.89062ZM85.7223 21.0377C84.9735 21.0377 84.4119 20.8509 83.8503 20.664C83.2886 20.4771 82.9142 20.1033 82.5398 19.7296C82.1654 19.3558 81.791 18.7952 81.6038 18.2346C81.4166 17.6739 81.2294 17.1133 81.2294 16.3658C81.2294 15.6183 81.4166 15.0576 81.6038 14.497C81.791 13.9364 82.1654 13.3757 82.5398 13.002C82.9142 12.6282 83.2886 12.2544 83.8503 12.0676C84.4119 11.8807 84.9735 11.6938 85.7223 11.6938C86.4712 11.6938 87.0328 11.8807 87.5944 12.0676C88.156 12.2544 88.5305 12.6282 88.9049 13.002C89.2793 13.3757 89.6537 13.9364 89.8409 14.497C90.0281 15.0576 90.2153 15.6183 90.2153 16.3658C90.2153 17.1133 90.0281 17.6739 89.8409 18.2346C89.6537 18.7952 89.2793 19.3558 88.9049 19.7296C88.5305 20.1033 88.156 20.4771 87.5944 20.664C87.0328 20.8509 86.4712 21.0377 85.7223 21.0377ZM85.7223 19.5427C86.0968 19.5427 86.4712 19.5427 86.8456 19.3558C87.22 19.169 87.4072 18.9821 87.5944 18.6083C87.7816 18.2346 87.9688 18.0477 87.9688 17.6739C87.9688 17.3002 88.156 16.9264 88.156 16.5527C88.156 16.1789 88.156 15.8051 87.9688 15.4314C87.9688 15.0576 87.7816 14.6839 87.5944 14.497C87.4072 14.3101 87.22 13.9364 86.8456 13.7495C86.4712 13.5626 86.0968 13.5626 85.7223 13.5626C85.3479 13.5626 84.9735 13.5626 84.5991 13.7495C84.2247 13.9364 84.0375 14.1232 83.8503 14.497C83.6631 14.8707 83.4759 15.0576 83.4759 15.4314C83.4759 15.8051 83.2886 16.1789 83.2886 16.5527C83.2886 16.9264 83.2886 17.3002 83.4759 17.6739C83.4759 18.0477 83.6631 18.4214 83.8503 18.6083C84.0375 18.9821 84.2247 19.169 84.5991 19.3558C84.9735 19.3558 85.3479 19.5427 85.7223 19.5427ZM90.7769 12.0676H92.2746V9.63814H94.1467V12.2544H95.8315V13.7495H94.1467V18.4214C94.1467 18.6083 94.1467 18.7952 94.1467 18.9821C94.1467 19.169 94.1467 19.169 94.3339 19.3558C94.5211 19.5427 94.5211 19.5427 94.5211 19.5427C94.7083 19.5427 94.8955 19.5427 95.0827 19.5427C95.2699 19.5427 95.2699 19.5427 95.4571 19.5427C95.6443 19.5427 95.6443 19.5427 95.8315 19.5427V20.8509C95.6443 20.8509 95.4571 20.8509 95.2699 20.8509C95.0827 20.8509 94.8955 20.8509 94.7083 20.8509C94.1467 20.8509 93.7723 20.8509 93.5851 20.664C93.2106 20.664 93.0234 20.4771 92.8362 20.2902C92.649 20.1033 92.4618 19.9165 92.4618 19.5427C92.4618 19.3558 92.2746 18.9821 92.2746 18.6083V13.5626H90.7769V12.0676Z" fill="#191919"/>
<path d="M23.195 8.89062H14.3963L11.7754 0.481079L8.96726 8.89062H0.355713L7.28239 13.9363L4.66148 22.3459L11.7754 17.1133L18.702 22.3459L16.0811 13.9363L23.195 8.89062Z" fill="#00B67A"/>
<path d="M16.6428 15.8052L16.0812 13.9364L11.7754 17.1133L16.6428 15.8052Z" fill="#005128"/>
<path d="M18.3276 27.5785H0.355713V45.5189H18.3276V27.5785Z" fill="#00B67A"/>
<path d="M37.61 27.5785H19.6381V45.5189H37.61V27.5785Z" fill="#00B67A"/>
<path d="M57.0796 27.5785H39.1077V45.5189H57.0796V27.5785Z" fill="#00B67A"/>
<path d="M76.3619 27.5785H58.39V45.5189H76.3619V27.5785Z" fill="#00B67A"/>
<path d="M95.8315 27.5785H77.8596V45.5189H95.8315V27.5785Z" fill="#DCDCE6"/>
<path d="M77.8596 27.5785H86.8456V45.332H77.8596V27.5785Z" fill="#00B67A"/>
<path d="M9.15447 39.5388L11.9626 38.7913L13.0858 42.342L9.15447 39.5388ZM15.5195 35.0537H10.6521L9.15447 30.5686L7.65681 35.0537H2.97662L6.90798 37.8569L5.41032 42.342L9.34168 39.5388L11.7754 37.8569L15.5195 35.0537Z" fill="white"/>
<path d="M28.624 39.5388L31.4322 38.7913L32.5554 42.342L28.624 39.5388ZM34.8019 35.0537H29.9345L28.4368 30.5686L26.9392 35.0537H22.0718L26.0031 37.8569L24.5055 42.342L28.4368 39.5388L30.8705 37.8569L34.8019 35.0537Z" fill="white"/>
<path d="M48.0936 39.5388L50.9018 38.7913L52.025 42.342L48.0936 39.5388ZM54.2715 35.0537H49.4041L47.9064 30.5686L46.4088 35.0537H41.5414L45.4727 37.8569L44.1623 42.342L48.0936 39.5388L50.5273 37.8569L54.2715 35.0537Z" fill="white"/>
<path d="M67.376 39.5388L70.1841 38.7913L71.3073 42.342L67.376 39.5388ZM73.741 35.0537H68.8736L67.376 30.5686L65.8783 35.0537H61.0109L64.9423 37.8569L63.4446 42.342L67.376 39.5388L69.8097 37.8569L73.741 35.0537Z" fill="white"/>
<path d="M86.8456 39.5388L89.6537 38.7913L90.7769 42.342L86.8456 39.5388ZM93.0234 35.0537H88.156L86.6584 30.5686L85.3479 35.0537H80.4805L84.4119 37.8569L82.9142 42.342L86.8456 39.5388L89.2793 37.8569L93.0234 35.0537Z" fill="white"/>
</svg>
