<svg width="121" height="51" viewBox="0 0 121 51" fill="none" xmlns="http://www.w3.org/2000/svg">
<path fill-rule="evenodd" clip-rule="evenodd" d="M2.70001 0.599976H117.7C118.8 0.599976 119.7 1.49998 119.7 2.59998V47.6C119.7 48.7 118.8 49.6 117.7 49.6H2.70001C1.60001 49.6 0.700012 48.7 0.700012 47.6V2.59998C0.700012 1.49998 1.60001 0.599976 2.70001 0.599976Z" fill="white" stroke="black" stroke-opacity="0.1"/>
<path fill-rule="evenodd" clip-rule="evenodd" d="M112 14.1999V14.8999H111.6V13.1999C111.8 13.1999 112 13.0999 112.3 13.0999C112.6 13.0999 112.8 13.1999 112.9 13.1999C113 13.2999 113.1 13.3999 113.1 13.5999C113.1 13.7999 113 13.8999 112.7 13.9999C112.9 14.0999 113 14.1999 113 14.3999C113.1 14.6999 113.1 14.7999 113.1 14.7999H112.7C112.6 14.6999 112.6 14.5999 112.6 14.3999C112.6 14.1999 112.5 14.0999 112.2 14.0999H112V14.1999ZM112 13.4999V13.9999H112.2C112.4 13.9999 112.6 13.8999 112.6 13.7999C112.6 13.5999 112.5 13.4999 112.2 13.4999C112.2 13.4999 112.1 13.4999 112 13.4999ZM112.3 12.2999C113.3 12.2999 114.1 12.9999 114.1 13.9999C114.1 14.9999 113.3 15.6999 112.3 15.6999C111.3 15.6999 110.5 14.9999 110.5 13.9999C110.5 13.0999 111.3 12.2999 112.3 12.2999ZM112.3 12.6999C111.5 12.6999 111 13.2999 111 13.9999C111 14.6999 111.6 15.2999 112.3 15.2999C113.1 15.2999 113.6 14.6999 113.6 13.9999C113.6 13.2999 113.1 12.6999 112.3 12.6999Z" fill="#80C600"/>
<path fill-rule="evenodd" clip-rule="evenodd" d="M108.1 17.4C108.1 16.8 107.8 15.7 106.6 15.7C105.5 15.7 105.1 16.7 105 17.4H108.1ZM105 19.2C105.1 20.3 106.1 20.8 107.4 20.8C108.3 20.8 109 20.7 109.7 20.5L110 22.2C109.1 22.5 108.1 22.7 107 22.7C104.2 22.7 102.5 21.1 102.5 18.5C102.5 16.4 103.8 14.1 106.7 14.1C109.4 14.1 110.4 16.2 110.4 18.2C110.4 18.6 110.3 19 110.3 19.2H105Z" fill="#80C600"/>
<path fill-rule="evenodd" clip-rule="evenodd" d="M100.3 11.9V14.3H102.2V16.2H100.3V19.2C100.3 20.2 100.5 20.6 101.3 20.6C101.6 20.6 101.9 20.6 102.1 20.5V22.4C101.8 22.5 101.1 22.6 100.4 22.6C99.6 22.6 98.9 22.3 98.5 21.9C98 21.4 97.8 20.6 97.8 19.5V16.1H96.7V14.2H97.8V12.4L100.3 11.9Z" fill="#80C600"/>
<path fill-rule="evenodd" clip-rule="evenodd" d="M93 22.5H95.6V14.2999H93V22.5ZM95.7 12C95.7 12.7 95.2 13.2999 94.3 13.2999C93.5 13.2999 92.9 12.7 93 12C93 11.3 93.5 10.7 94.4 10.7C95.1 10.7 95.6 11.2 95.7 12Z" fill="#80C600"/>
<path fill-rule="evenodd" clip-rule="evenodd" d="M84.4 19.8C85.1 20.2 86.2 20.5 87.3 20.5C88.5 20.5 89.1 20 89.1 19.3C89.1 18.6 88.6 18.2 87.2 17.7C85.2 17.1 84 16 84 14.4C84 12.5 85.6 11 88.3 11C89.6 11 90.6 11.3 91.2 11.6L90.6 13.7C90.1 13.5 89.3 13.2 88.2 13.2C87.1 13.2 86.5 13.7 86.5 14.3C86.5 15 87.1 15.3 88.6 15.9C90.6 16.6 91.6 17.7 91.6 19.3C91.6 21.2 90.1 22.8 87 22.8C85.7 22.8 84.4 22.5 83.7 22.1L84.4 19.8Z" fill="#80C600"/>
<path fill-rule="evenodd" clip-rule="evenodd" d="M79.6 17.7C79.6 17.6 79.6 17.4 79.6 17.2C79.4 16.5 78.9 15.9 78.1 15.9C76.9 15.9 76.3 16.9 76.3 18.2C76.3 19.6 77 20.5 78.1 20.5C78.9 20.5 79.4 20 79.6 19.3C79.7 19.1 79.7 18.9 79.7 18.7V17.7H79.6ZM82.2 10.5V20C82.2 20.9 82.2 21.9 82.3 22.5H80L79.9 21.3C79.4 22.2 78.4 22.7 77.3 22.7C75.3 22.7 73.7 21 73.7 18.5C73.7 15.7 75.4 14.1 77.4 14.1C78.4 14.1 79.2 14.5 79.6 15V10.5H82.2Z" fill="#323835"/>
<path fill-rule="evenodd" clip-rule="evenodd" d="M70.6 17.4C70.6 16.8 70.3 15.7 69.1 15.7C68 15.7 67.6 16.7 67.5 17.4H70.6ZM67.6 19.2C67.7 20.3 68.7 20.8 70 20.8C70.9 20.8 71.6 20.7 72.3 20.5L72.6 22.2C71.7 22.5 70.7 22.7 69.6 22.7C66.8 22.7 65.1 21.1 65.1 18.5C65.1 16.4 66.4 14.1 69.3 14.1C72 14.1 73 16.2 73 18.2C73 18.6 72.9 19 72.9 19.2H67.6Z" fill="#323835"/>
<path fill-rule="evenodd" clip-rule="evenodd" d="M62.9 11.9V14.3H64.8V16.2H62.9V19.2C62.9 20.2 63.1 20.6 63.9 20.6C64.2 20.6 64.5 20.6 64.7 20.5V22.4C64.4 22.5 63.7 22.6 63 22.6C62.2 22.6 61.5 22.3 61.1 21.9C60.6 21.4 60.4 20.6 60.4 19.5V16.1H59.3V14.2H60.4V12.4L62.9 11.9Z" fill="#323835"/>
<path fill-rule="evenodd" clip-rule="evenodd" d="M52.8 20.2C53.3 20.5 54.3 20.8 55 20.8C55.8 20.8 56.1 20.5 56.1 20.1C56.1 19.7 55.8 19.5 54.9 19.2C53.2 18.6 52.5 17.7 52.5 16.7C52.5 15.2 53.8 14 55.9 14C56.9 14 57.7 14.2 58.3 14.5L57.8 16.3C57.4 16.1 56.7 15.8 56 15.8C55.4 15.8 55 16.1 55 16.5C55 16.9 55.3 17.1 56.3 17.4C57.9 17.9 58.6 18.7 58.6 19.9C58.6 21.4 57.4 22.6 55 22.6C53.9 22.6 52.9 22.4 52.3 22L52.8 20.2Z" fill="#323835"/>
<path fill-rule="evenodd" clip-rule="evenodd" d="M51.4 19.8C51.4 20.9 51.4 21.8 51.5 22.4H49.2L49.1 21.2H49C48.7 21.7 47.9 22.5 46.4 22.5C44.7 22.5 43.5 21.5 43.5 18.9V14.1H46.1V18.5C46.1 19.7 46.5 20.4 47.4 20.4C48.1 20.4 48.5 19.9 48.7 19.5C48.8 19.3 48.8 19.1 48.8 18.9V14H51.4V19.8Z" fill="#323835"/>
<path fill-rule="evenodd" clip-rule="evenodd" d="M37.3 17C37.3 15.8 37.3 15 37.2 14.3H39.4L39.5 15.8H39.6C40 14.6 41 14.1 41.9 14.1C42.1 14.1 42.3 14.1 42.4 14.1V16.5C42.2 16.5 42 16.4 41.7 16.4C40.7 16.4 40.1 16.9 39.9 17.7C39.9 17.9 39.8 18.1 39.8 18.3V22.5H37.2V17H37.3Z" fill="#323835"/>
<path fill-rule="evenodd" clip-rule="evenodd" d="M31.6 13.3H28.5V11.1H37.4V13.3H34.2V22.5H31.6V13.3Z" fill="#323835"/>
<path fill-rule="evenodd" clip-rule="evenodd" d="M20.1 25.2H7.20001V12.6C7.20001 10.1 9.30001 8.09998 11.8 8.09998H24.7V20.7C24.8 23.2 22.7 25.2 20.1 25.2Z" fill="#80C600"/>
<path fill-rule="evenodd" clip-rule="evenodd" d="M21.2 11.6C21.1 11.5 20.8 11.5 20.7 11.6L14.2 18C14.1 18.1 13.8 18.1 13.7 18L11.3 15.7C11.2 15.6 10.9 15.6 10.8 15.7L9.2 17.2C9.1 17.3 9.1 17.6 9.2 17.7L13.7 22.1C13.8 22.2 14.1 22.2 14.2 22.1L22.8 13.6C22.9 13.5 22.9 13.2 22.8 13.1L21.2 11.6Z" fill="#FEFEFE"/>
<path d="M1.20001 32.1H119.2V48.1C119.2 48.7 118.8 49.1 118.2 49.1H2.20001C1.60001 49.1 1.20001 48.7 1.20001 48.1V32.1Z" fill="#F2F3F3"/>
<path opacity="0.6" d="M11 37.8999C10.3 37.8999 9.80001 38.0999 9.40001 38.5999C9.00001 39.0999 8.80001 39.6999 8.80001 40.5999C8.80001 41.4999 9.00001 42.0999 9.40001 42.5999C9.80001 42.9999 10.3 43.2999 11 43.2999C11.3 43.2999 11.6 43.2999 11.9 43.1999C12.2 43.0999 12.5 43.0999 12.8 42.9999V43.9999C12.2 44.1999 11.6 44.2999 10.9 44.2999C9.90001 44.2999 9.10001 43.9999 8.50001 43.3999C7.90001 42.7999 7.70001 41.8999 7.70001 40.6999C7.70001 39.9999 7.80001 39.2999 8.10001 38.7999C8.40001 38.1999 8.80001 37.7999 9.30001 37.4999C9.80001 37.1999 10.4 37.0999 11.1 37.0999C11.8 37.0999 12.5 37.2999 13.1 37.5999L12.7 38.5999C12.5 38.4999 12.2 38.3999 11.9 38.2999C11.5 37.8999 11.3 37.8999 11 37.8999ZM19.5 44.0999H15.5V36.9999H19.5V37.9999H16.6V39.8999H19.3V40.8999H16.6V43.0999H19.5V44.0999ZM23.3 40.2999H24.1C24.6 40.2999 25 40.1999 25.3 39.9999C25.5 39.7999 25.7 39.4999 25.7 39.0999C25.7 38.6999 25.6 38.3999 25.3 38.1999C25 37.9999 24.6 37.9999 24.1 37.9999H23.3V40.2999ZM23.3 41.2999V44.1999H22.1V36.9999H24.1C25 36.9999 25.7 37.1999 26.1 37.4999C26.5 37.7999 26.8 38.3999 26.8 39.0999C26.8 39.9999 26.3 40.5999 25.4 40.9999L27.4 44.1999H26.1L24.4 41.2999H23.3ZM32.2 44.0999H31V37.9999H28.9V36.9999H34.3V37.9999H32.2V44.0999ZM36.6 44.0999V36.9999H37.8V44.0999H36.6ZM41.9 44.0999H40.7V36.9999H44.7V37.9999H41.8V40.1999H44.5V41.1999H41.8V44.0999H41.9ZM47.3 44.0999V36.9999H48.5V44.0999H47.3ZM55.5 44.0999H51.5V36.9999H55.5V37.9999H52.6V39.8999H55.3V40.8999H52.6V43.0999H55.5V44.0999ZM64.1 40.4999C64.1 41.6999 63.8 42.5999 63.1 43.1999C62.4 43.7999 61.5 44.0999 60.3 44.0999H58.3V36.9999H60.5C61.6 36.9999 62.5 37.2999 63.2 37.8999C63.7 38.4999 64.1 39.3999 64.1 40.4999ZM62.8 40.4999C62.8 38.7999 62 37.8999 60.4 37.8999H59.4V43.0999H60.2C62 43.1999 62.8 42.2999 62.8 40.4999ZM74.6 42.1999C74.6 42.7999 74.4 43.2999 73.9 43.6999C73.4 44.0999 72.8 44.1999 72 44.1999C71.2 44.1999 70.5 44.0999 70 43.7999V42.6999C70.3 42.8999 70.7 42.9999 71 43.0999C71.4 43.1999 71.7 43.1999 72 43.1999C72.5 43.1999 72.8 43.0999 73 42.8999C73.2 42.6999 73.3 42.4999 73.3 42.1999C73.3 41.8999 73.2 41.6999 73 41.4999C72.8 41.2999 72.4 41.0999 71.8 40.7999C71.1 40.4999 70.7 40.1999 70.4 39.8999C70.1 39.5999 70 39.1999 70 38.6999C70 38.0999 70.2 37.5999 70.6 37.2999C71 36.9999 71.6 36.7999 72.3 36.7999C73 36.7999 73.7 36.8999 74.3 37.1999L73.9 38.1999C73.3 37.8999 72.7 37.7999 72.2 37.7999C71.8 37.7999 71.5 37.8999 71.3 37.9999C71.1 38.1999 71 38.3999 71 38.6999C71 38.8999 71 38.9999 71.1 39.1999C71.2 39.2999 71.3 39.4999 71.5 39.5999C71.7 39.6999 72 39.8999 72.5 40.0999C73 40.2999 73.4 40.4999 73.7 40.6999C73.9 40.8999 74.1 41.0999 74.2 41.2999C74.6 41.5999 74.6 41.8999 74.6 42.1999ZM81.2 44.0999H77.2V36.9999H81.2V37.9999H78.3V39.8999H81V40.8999H78.3V43.0999H81.2V44.0999ZM87 37.8999C86.3 37.8999 85.8 38.0999 85.4 38.5999C85 39.0999 84.8 39.6999 84.8 40.5999C84.8 41.4999 85 42.0999 85.4 42.5999C85.8 42.9999 86.3 43.2999 87 43.2999C87.3 43.2999 87.6 43.2999 87.9 43.1999C88.2 43.0999 88.5 43.0999 88.8 42.9999V43.9999C88.2 44.1999 87.6 44.2999 86.9 44.2999C85.9 44.2999 85.1 43.9999 84.5 43.3999C83.9 42.7999 83.7 41.8999 83.7 40.6999C83.7 39.9999 83.8 39.2999 84.1 38.7999C84.4 38.1999 84.8 37.7999 85.3 37.4999C85.8 37.1999 86.4 37.0999 87.1 37.0999C87.8 37.0999 88.5 37.2999 89.1 37.5999L88.7 38.5999C88.5 38.4999 88.2 38.3999 87.9 38.2999C87.6 37.8999 87.3 37.8999 87 37.8999ZM97.1 36.9999V41.5999C97.1 42.0999 97 42.5999 96.8 42.9999C96.6 43.3999 96.2 43.6999 95.8 43.8999C95.4 44.0999 94.9 44.1999 94.3 44.1999C93.4 44.1999 92.7 43.9999 92.2 43.4999C91.7 42.9999 91.5 42.3999 91.5 41.5999V36.9999H92.7V41.4999C92.7 42.0999 92.8 42.4999 93.1 42.7999C93.4 43.0999 93.8 43.1999 94.4 43.1999C95.5 43.1999 96.1 42.5999 96.1 41.4999V36.9999H97.1ZM101.2 40.2999H102C102.5 40.2999 102.9 40.1999 103.2 39.9999C103.4 39.7999 103.6 39.4999 103.6 39.0999C103.6 38.6999 103.5 38.3999 103.2 38.1999C102.9 37.9999 102.5 37.8999 102 37.8999H101.2V40.2999ZM101.2 41.2999V44.1999H100V36.9999H102C102.9 36.9999 103.6 37.1999 104 37.4999C104.4 37.7999 104.7 38.3999 104.7 39.0999C104.7 39.9999 104.2 40.5999 103.3 40.9999L105.3 44.1999H104L102.3 41.2999H101.2ZM111.6 44.0999H107.6V36.9999H111.6V37.9999H108.7V39.8999H111.4V40.8999H108.7V43.0999H111.6V44.0999Z" fill="#323835"/>
</svg>
