<svg width="26" height="26" viewBox="0 0 26 26" fill="none" xmlns="http://www.w3.org/2000/svg">
<path d="M24.0775 0.000181777H1.92254C1.67349 -0.00325618 1.42621 0.0421029 1.1948 0.133669C0.9634 0.225235 0.752409 0.361214 0.57388 0.53384C0.395351 0.706466 0.252783 0.912359 0.154315 1.13976C0.0558482 1.36716 0.00341138 1.61161 0 1.85916V24.1408C0.00341138 24.3884 0.0558482 24.6328 0.154315 24.8602C0.252783 25.0876 0.395351 25.2935 0.57388 25.4662C0.752409 25.6388 0.9634 25.7748 1.1948 25.8663C1.42621 25.9579 1.67349 26.0033 1.92254 25.9998H24.0775C24.3265 26.0033 24.5738 25.9579 24.8052 25.8663C25.0366 25.7748 25.2476 25.6388 25.4261 25.4662C25.6046 25.2935 25.7472 25.0876 25.8457 24.8602C25.9442 24.6328 25.9966 24.3884 26 24.1408V1.85916C25.9966 1.61161 25.9442 1.36716 25.8457 1.13976C25.7472 0.912359 25.6046 0.706466 25.4261 0.53384C25.2476 0.361214 25.0366 0.225235 24.8052 0.133669C24.5738 0.0421029 24.3265 -0.00325618 24.0775 0.000181777ZM7.88632 21.7619H3.96278V10.062H7.88632V21.7619ZM5.92455 8.42406C5.38344 8.42406 4.8645 8.2104 4.48188 7.83008C4.09926 7.44977 3.88431 6.93394 3.88431 6.39609C3.88431 5.85824 4.09926 5.34242 4.48188 4.9621C4.8645 4.58178 5.38344 4.36812 5.92455 4.36812C6.21188 4.33573 6.50285 4.36403 6.77841 4.45117C7.05397 4.5383 7.30791 4.68231 7.5236 4.87376C7.73928 5.06521 7.91185 5.29979 8.03001 5.56213C8.14817 5.82447 8.20925 6.10866 8.20925 6.39609C8.20925 6.68352 8.14817 6.96771 8.03001 7.23005C7.91185 7.49239 7.73928 7.72697 7.5236 7.91842C7.30791 8.10987 7.05397 8.25388 6.77841 8.34102C6.50285 8.42815 6.21188 8.45645 5.92455 8.42406ZM22.0372 21.7619H18.1137V15.483C18.1137 13.91 17.5513 12.883 16.1258 12.883C15.6846 12.8862 15.255 13.0238 14.8949 13.2771C14.5347 13.5305 14.2614 13.8875 14.1117 14.3C14.0093 14.6055 13.965 14.9273 13.9809 15.249V21.7489H10.0573C10.0573 21.7489 10.0573 11.115 10.0573 10.049H13.9809V11.7C14.3373 11.0853 14.8557 10.5788 15.4803 10.2352C16.1048 9.89159 16.8118 9.72385 17.5252 9.75005C20.1408 9.75005 22.0372 11.427 22.0372 15.028V21.7619Z" fill="#475B9F"/>
</svg>
