<svg width="24" height="24" viewBox="0 0 24 24" fill="none" xmlns="http://www.w3.org/2000/svg">
<path d="M0 12.0012C0.0624062 8.59526 1.26493 5.75098 3.60996 3.47075C5.955 1.19052 8.75128 0.0312031 12.0012 0C15.5008 0.0624062 18.369 1.25773 20.6037 3.58596C22.8383 5.91419 23.9712 8.72007 24.0024 12.0012C23.94 15.3759 22.7375 18.213 20.3924 20.5101C18.0474 22.8047 15.2511 23.9688 12.0012 24C10.8755 24 9.75218 23.8272 8.62646 23.4839C8.84488 23.1407 9.06331 22.7495 9.28173 22.3126C9.53135 21.7822 9.84338 20.7813 10.2202 19.3123C10.3138 18.9067 10.4554 18.3594 10.6427 17.6706C10.8611 18.045 11.2355 18.3882 11.7684 18.7027C13.1749 19.3579 14.6583 19.2955 16.2208 18.5155C17.8458 17.577 18.9715 16.1248 19.5956 14.1566C20.1572 12.0948 20.0876 10.1794 19.3843 8.41524C18.6811 6.64867 17.4233 5.37654 15.6112 4.59406C13.3309 3.93879 11.1107 4.0084 8.9553 4.80528C6.79988 5.60216 5.29973 6.9703 4.45485 8.90729C4.23642 9.62496 4.10441 10.3378 4.05641 11.0411C4.0084 11.7444 4.0324 12.4308 4.12601 13.1029C4.21962 13.775 4.45485 14.3774 4.82928 14.9079C5.20372 15.4383 5.70537 15.8464 6.32943 16.1272C6.48545 16.1896 6.61026 16.1896 6.70387 16.1272C6.82868 16.0648 6.9535 15.8152 7.07831 15.3783C7.20312 14.9415 7.25112 14.6439 7.21992 14.4878C7.18872 14.4254 7.12631 14.315 7.0327 14.159C6.37744 13.0957 6.15662 11.9796 6.37744 10.8083C6.59586 9.63696 7.08071 8.64326 7.82958 7.83198C8.9865 6.79988 10.3378 6.23822 11.8836 6.14461C13.4293 6.05101 14.7519 6.47345 15.844 7.40954C16.4368 8.09601 16.8209 8.92409 16.9913 9.89379C17.1617 10.8635 17.1641 11.7924 16.9913 12.6829C16.8185 13.5734 16.5137 14.4086 16.0768 15.1911C15.2943 16.4104 14.3726 17.0345 13.3117 17.0657C12.6877 17.0345 12.1788 16.7921 11.7876 16.3384C11.3963 15.8848 11.2787 15.3615 11.4371 14.7687C11.4996 14.4254 11.6868 13.7534 11.9988 12.7525C12.3108 11.7516 12.4836 11.0027 12.5149 10.5035C12.4212 9.31533 11.874 8.70567 10.8731 8.67447C10.0906 8.76808 9.51455 9.12091 9.13771 9.72817C8.76088 10.3354 8.55926 11.0339 8.52805 11.814C8.62166 12.7213 8.76328 13.3453 8.9505 13.6886C8.60726 15.0951 8.34083 16.2208 8.15362 17.0633C8.09121 17.2817 7.91839 17.9538 7.63756 19.0795C7.35674 20.2052 7.20072 21.0645 7.16952 21.6574V22.9703C4.9517 21.9382 3.19952 20.4476 1.92019 18.4939C0.640864 16.5401 0 14.375 0 12.0012Z" fill="#475B9F"/>
</svg>
