<svg width="27" height="27" viewBox="0 0 27 27" fill="none" xmlns="http://www.w3.org/2000/svg">
<path d="M20.7035 0.711914H6.29654C3.21717 0.711914 0.711914 3.21717 0.711914 6.29654V20.7035C0.711914 23.7828 3.21717 26.2881 6.29654 26.2881H20.7035C23.7828 26.2881 26.2881 23.7828 26.2881 20.7035V6.29654C26.2881 3.21717 23.7828 0.711914 20.7035 0.711914ZM24.9697 20.7035C24.9697 23.0559 23.0559 24.9697 20.7035 24.9697H6.29654C3.94411 24.9697 2.03027 23.0559 2.03027 20.7035V6.29654C2.03027 3.94411 3.94411 2.03027 6.29654 2.03027H20.7035C23.0559 2.03027 24.9697 3.94411 24.9697 6.29654V20.7035ZM15.3154 12.2906L20.2909 6.08934C20.5187 5.80537 20.4732 5.39051 20.1893 5.16264C19.9053 4.93488 19.4905 4.98029 19.2626 5.26431L14.4703 11.2373L9.67802 5.26431C9.55289 5.10838 9.36378 5.01762 9.16386 5.01762H5.28256C5.02901 5.01762 4.79793 5.16306 4.68824 5.39167C4.57856 5.62027 4.60972 5.89154 4.7684 6.08929L11.6845 14.7094L6.70903 20.9107C6.48121 21.1946 6.52672 21.6095 6.81064 21.8374C6.93235 21.935 7.07801 21.9824 7.22276 21.9824C7.41577 21.9824 7.60714 21.8979 7.73735 21.7357L12.5297 15.7627L17.3219 21.7357C17.4471 21.8916 17.6362 21.9824 17.8361 21.9824H21.7174C21.7178 21.9824 21.7181 21.9824 21.7184 21.9824C22.0825 21.9824 22.3776 21.6873 22.3776 21.3232C22.3776 21.1551 22.3148 21.0018 22.2112 20.8854L15.3154 12.2906ZM18.1524 20.664L6.65661 6.33598H8.84762L20.3434 20.664H18.1524Z" fill="#475B9F"/>
</svg>
