<svg width="29" height="20" viewBox="0 0 29 20" fill="none" xmlns="http://www.w3.org/2000/svg">
<path d="M28.9933 7.04863C29.0585 5.198 28.6461 3.36122 27.7945 1.70884C27.2168 1.03083 26.4149 0.573275 25.5287 0.415913C21.8632 0.0894815 18.1825 -0.0443119 14.5025 0.0151056C10.8358 -0.0470087 7.16839 0.0824673 3.51577 0.402984C2.79362 0.53191 2.12533 0.864354 1.59243 1.35975C0.406819 2.43288 0.275084 4.26884 0.143349 5.82035C-0.0477829 8.60992 -0.0477829 11.4089 0.143349 14.1985C0.18146 15.0718 0.313937 15.9386 0.538554 16.7844C0.697393 17.4374 1.01876 18.0415 1.47387 18.5427C2.01039 19.0644 2.69425 19.4157 3.43672 19.5512C6.27682 19.8953 9.1385 20.0379 11.9995 19.9779C16.6102 20.0425 20.6545 19.9779 25.4365 19.6159C26.1972 19.4887 26.9003 19.1369 27.452 18.6074C27.8208 18.2453 28.0963 17.802 28.2556 17.3145C28.7267 15.8956 28.9581 14.4107 28.9406 12.9185C28.9933 12.1945 28.9933 7.82438 28.9933 7.04863ZM11.5253 13.6943V5.69105L19.324 9.71206C17.1372 10.9016 14.2522 12.2462 11.5253 13.6943Z" fill="#475B9F"/>
</svg>
