<svg xmlns="http://www.w3.org/2000/svg" width="233" height="111" viewBox="0 0 233 111" fill="none">
  <path d="M0 88.9995V82.5087L11.1534 81.1012V77.3707L10.4605 76.6737H2.70344L2.0106 77.3707V78.9285H0V76.8377L1.7389 75.0886H11.4387L13.1776 76.8377V82.4403L2.0106 83.8615V87.4007H12.9466V88.9995H0Z" fill="#2A2A2A"/>
  <path d="M1.77967 75.198L0.108704 76.8788V78.8192H1.90194V77.3161L2.64912 76.5645H10.5149L11.2621 77.3161V81.1969L0.108704 82.618V88.8902H12.838V87.5101H1.90194V83.7659L13.0553 82.3447V76.8788L11.3844 75.198H1.77967Z" fill="#2A2A2A"/>
  <path d="M39.7908 88.9995L37.9432 85.5833H29.2488L27.4148 88.9995H25.2411L32.7266 75.0886H34.4654L41.9644 88.9995H39.7908ZM37.0874 83.9981L33.596 77.5073L30.1046 83.9981H37.0874Z" fill="#2A2A2A"/>
  <path d="M32.7945 75.198L25.4178 88.8902H27.3333L29.1673 85.474H37.9976L39.8316 88.8902H41.7471L34.3704 75.198H32.7945ZM29.928 84.1075L33.6096 77.2751L37.2912 84.1075H29.928Z" fill="#2A2A2A"/>
  <path d="M54.5715 88.9995V75.0886H66.6622L68.4011 76.8377V87.2504L66.6622 88.9995H54.5715ZM65.6977 87.4007L66.3769 86.7174V77.3707L65.6977 76.6874H56.5957V87.4007H65.6977Z" fill="#2A2A2A"/>
  <path d="M54.6801 75.198V88.8902H66.6214L68.2924 87.2094V76.8788L66.6214 75.198H54.6801ZM56.4869 87.5101V76.5645H65.752L66.4992 77.3161V86.7585L65.752 87.5101H56.4869Z" fill="#2A2A2A"/>
  <path d="M88.2897 88.9995L80.8043 75.0886H82.9779L89.1592 86.5671L95.354 75.0886H97.514L90.0286 88.9995H88.2897Z" fill="#2A2A2A"/>
  <path d="M89.1592 86.8132L82.91 75.198H80.9945L88.3576 88.8902H89.9607L97.3374 75.198H95.4083L89.1592 86.8132Z" fill="#2A2A2A"/>
  <path d="M121.383 88.9995L119.549 85.5833H110.855L109.007 88.9995H106.833L114.332 75.0886H116.071L123.57 88.9995H121.383ZM118.68 83.9981L115.188 77.5073L111.697 83.9981H118.68Z" fill="#2A2A2A"/>
  <path d="M114.387 75.198L107.01 88.8902H108.939L110.773 85.474H119.603L121.437 88.8902H123.353L115.976 75.198H114.387ZM111.52 84.1075L115.202 77.2751L118.883 84.1075H111.52Z" fill="#2A2A2A"/>
  <path d="M147.956 88.9995L138.188 77.7259V88.9995H136.164V75.0886H137.998L147.765 86.3485V75.0886H149.776V88.9995H147.956Z" fill="#2A2A2A"/>
  <path d="M147.874 86.6492L137.943 75.198H136.272V88.8902H138.079V77.4254L148.01 88.8902H149.667V75.198H147.874V86.6492Z" fill="#2A2A2A"/>
  <path d="M165.467 88.9995L163.728 87.2504V76.8377L165.467 75.0886H176.036L177.775 76.8377V80.3086H175.764V77.3707L175.071 76.6737H166.431L165.752 77.3707V86.7174L166.431 87.4007H175.071L175.764 86.7174V83.6702H177.775V87.2504L176.036 88.9995H165.467Z" fill="#2A2A2A"/>
  <path d="M165.508 75.198L163.837 76.8788V87.1958L165.508 88.8902H175.995L177.666 87.1958V83.7796H175.873V86.7585L175.112 87.5101H166.391L165.643 86.7585V77.3161L166.391 76.5645H175.112L175.873 77.3161V80.1994H177.666V76.8788L175.995 75.198H165.508Z" fill="#2A2A2A"/>
  <path d="M191.618 88.9995V75.0886H204.687V76.6737H193.642V81.1285H204.578V82.7273H193.642V87.4007H204.796V88.9995H191.618Z" fill="#2A2A2A"/>
  <path d="M193.534 82.618H204.47V81.2515H193.534V76.5645H204.578V75.198H191.727V88.8902H204.687V87.5101H193.534V82.618Z" fill="#2A2A2A"/>
  <path d="M218.53 88.9995V75.0886H230.621L232.36 76.8377V87.2504L230.621 88.9995H218.53ZM229.656 87.4007L230.336 86.7174V77.3707L229.656 76.6874H220.554V87.4007H229.656Z" fill="#2A2A2A"/>
  <path d="M230.567 75.198H218.625V88.8902H230.567L232.238 87.2094V76.8788L230.567 75.198ZM220.432 87.5101V76.5645H229.697L230.444 77.3161V86.7585L229.697 87.5101H220.432Z" fill="#2A2A2A"/>
  <path d="M129.018 25.5534C129.018 23.8863 128.773 22.7931 128.284 22.2875C127.795 21.7819 126.708 21.5359 125.038 21.5359H103.546V24.8838H125.703V26.3733H107.526C105.76 26.3733 104.673 26.5099 104.307 26.7969C103.79 27.1658 103.546 28.136 103.546 29.7212H129.018V25.5534Z" fill="#2A2A2A"/>
  <path d="M125.024 34.1075C126.79 34.1075 127.877 33.9709 128.271 33.6839C128.76 33.315 129.004 32.3448 129.004 30.746H103.546V34.9274C103.546 36.5945 103.804 37.6877 104.293 38.1933C104.796 38.6989 105.869 38.9586 107.54 38.9586H129.032V35.597H106.888V34.1075H125.024Z" fill="#2A2A2A"/>
  <path d="M116.275 12.6401C125.105 12.6401 132.428 19.1582 133.732 27.6851H138.188C136.857 16.7122 127.551 8.21265 116.275 8.21265C104.999 8.21265 95.6936 16.7122 94.3623 27.6851H98.8182C100.122 19.1582 107.445 12.6401 116.275 12.6401Z" fill="#2A2A2A"/>
  <path d="M133.773 32.2902C132.795 41.063 125.336 47.8818 116.289 47.8818C107.241 47.8818 99.7691 41.063 98.8046 32.2902H94.3759C95.3812 43.4954 104.796 52.2819 116.289 52.2819C127.782 52.2819 137.21 43.4954 138.201 32.2902H133.773Z" fill="#2A2A2A"/>
  <path d="M116.275 60.4808C99.7012 60.4808 86.2112 46.9116 86.2112 30.2404C86.2112 13.5692 99.7012 0 116.275 0C132.849 0 146.339 13.5692 146.339 30.2404C146.339 46.9116 132.863 60.4808 116.275 60.4808ZM116.275 4.29078C102.051 4.29078 90.4769 15.9333 90.4769 30.2404C90.4769 44.5476 102.051 56.1901 116.275 56.1901C130.499 56.1901 142.087 44.5476 142.087 30.2404C142.087 15.9333 130.512 4.29078 116.275 4.29078Z" fill="#2A2A2A"/>
  <path d="M71.0638 104.14H74.4057V111H76.2397V104.14H79.5952V102.815H71.0638V104.14Z" fill="#2A2A2A"/>
  <path d="M51.2974 102.815L50.1699 103.949V106.955L56.9896 107.816V109.469L56.7858 109.674H52.2212L52.0039 109.469V108.158H50.1699V109.866L51.2974 111H57.7096L58.8372 109.866V106.723L52.0039 105.862V104.345L52.2212 104.14H56.7858L56.9896 104.345V105.589H58.8372V103.949L57.7096 102.815H51.2974Z" fill="#2A2A2A"/>
  <path d="M98.628 109.469L98.4242 109.674H93.9819L93.7781 109.469V102.815H91.9441V109.866L93.0717 111H99.348L100.476 109.866V102.815H98.628V109.469Z" fill="#2A2A2A"/>
  <path d="M153.104 102.815L151.977 103.949V109.866L153.104 111H159.517L160.644 109.866V103.949L159.517 102.815H153.104ZM153.824 109.469V104.345L154.028 104.14H158.593L158.797 104.345V109.469L158.593 109.674H154.028L153.824 109.469Z" fill="#2A2A2A"/>
  <path d="M182.19 105.589V103.949L181.063 102.815H174.65L173.523 103.949V106.955L180.342 107.816V109.469L180.139 109.674H175.561L175.357 109.469V108.158H173.523V109.866L174.65 111H181.063L182.19 109.866V106.723L175.357 105.862V104.345L175.561 104.14H180.139L180.342 104.345V105.589H182.19Z" fill="#2A2A2A"/>
  <path d="M113.612 102.815V111H121.03L122.157 109.866V103.949L121.03 102.815H113.612ZM115.46 109.674V104.14H120.106L120.31 104.345V109.469L120.106 109.674H115.46Z" fill="#2A2A2A"/>
  <path d="M134.832 104.14H136.137V109.674H134.832V111H139.302V109.674H137.984V104.14H139.302V102.815H134.832V104.14Z" fill="#2A2A2A"/>
  <g opacity="0.5">
    <path d="M147.439 54.3043C147.453 56.0124 146.094 57.4063 144.396 57.4199C142.698 57.4336 141.312 56.0671 141.299 54.359C141.285 52.6509 142.644 51.2571 144.342 51.2434C146.026 51.2297 147.426 52.6099 147.439 54.3043ZM146.937 54.318C146.923 52.8968 145.768 51.749 144.342 51.7627C142.929 51.7763 141.788 52.9378 141.802 54.3726C141.815 55.7938 142.97 56.9417 144.396 56.928C145.809 56.9007 146.95 55.7391 146.937 54.318ZM145.32 54.605L145.877 55.5888H145.225L144.641 54.5503L143.581 54.564L143.595 55.6025H142.997L142.97 53.0745L145.415 53.0472L145.823 53.4434V54.072L145.32 54.605ZM145.211 53.5801L145.103 53.4708L143.581 53.4844V54.1677L145.062 54.154L145.225 53.99L145.211 53.5801Z" fill="#2A2A2A"/>
  </g>
</svg>