<svg width="366" height="53" viewBox="0 0 366 53" fill="none" xmlns="http://www.w3.org/2000/svg">
<g clip-path="url(#clip0_56_1016)">
<path d="M4.09205 43.1667C6.31936 43.1667 7.80424 44.5021 7.80424 46.5182C7.80424 48.5343 6.31073 49.8522 4.09205 49.8522H2.5899V52.3222H0V43.158H4.09205V43.1667ZM3.88485 47.6965C4.68772 47.6965 5.2057 47.2252 5.2057 46.5182C5.2057 45.8113 4.68772 45.3225 3.88485 45.3225H2.51221V47.6965H3.88485Z" fill="#2A2A2A"/>
<path d="M8.70207 52.3309V45.4883H10.938V46.5269H11.0071C11.3006 45.82 11.8445 45.3836 12.8632 45.3836H13.5625V47.6092H12.4488C11.6028 47.6092 11.0848 48.1416 11.0848 49.1016V52.3397H8.70207V52.3309Z" fill="#2A2A2A"/>
<path d="M21.2804 49.5031H16.2042C16.3596 50.2188 16.8344 50.629 17.5509 50.629C18.1552 50.629 18.4919 50.4021 18.7164 50.053H21.1509C20.8228 51.3447 19.5365 52.4968 17.5423 52.4968C15.3668 52.4968 13.7783 50.9694 13.7783 48.9096C13.7783 46.8499 15.3668 45.3138 17.5423 45.3138C19.5969 45.3138 21.2804 46.6579 21.2804 49.058V49.5031ZM16.2128 48.2201H18.8545C18.6991 47.6354 18.2588 47.1903 17.5509 47.1903C16.843 47.1903 16.4027 47.5568 16.2214 48.2201H16.2128Z" fill="#2A2A2A"/>
<path d="M22.325 52.3309V45.4883H24.5609V46.4659H24.63C24.9753 45.8462 25.7695 45.3138 26.7364 45.3138C27.7033 45.3138 28.4458 45.8375 28.7911 46.5182H28.8601C29.2832 45.8462 30.0774 45.3138 31.0184 45.3138C32.5723 45.3138 33.5047 46.3349 33.5047 48.1241V52.3222H31.122V48.5518C31.122 47.7837 30.7853 47.391 30.2069 47.391C29.5335 47.391 29.1019 47.8623 29.1019 48.7002V52.3222H26.7192V48.5518C26.7192 47.7837 26.3825 47.391 25.8041 47.391C25.1307 47.391 24.7077 47.8623 24.7077 48.7002V52.3222H22.325V52.3309Z" fill="#2A2A2A"/>
<path d="M34.8601 43.542C34.8601 42.8525 35.3781 42.3201 36.1205 42.3201C36.8629 42.3201 37.3723 42.8438 37.3723 43.542C37.3723 44.2403 36.8716 44.7465 36.1205 44.7465C35.3694 44.7465 34.8601 44.2403 34.8601 43.542ZM34.9292 52.3309V45.4883H37.3119V52.3309H34.9292Z" fill="#2A2A2A"/>
<path d="M38.719 49.6864V45.4883H41.1017V49.2326C41.1017 49.9919 41.4816 50.4195 42.1118 50.4195C42.8197 50.4195 43.3636 49.8959 43.3636 49.0755V45.4883H45.7463V52.3309H43.5017V51.3534H43.4413C43.1305 51.9033 42.3881 52.5055 41.1967 52.5055C39.6859 52.5055 38.7104 51.528 38.7104 49.6951L38.719 49.6864Z" fill="#2A2A2A"/>
<path d="M47.1535 52.3309V45.4883H49.3894V46.4659H49.4585C49.8038 45.8462 50.5981 45.3138 51.565 45.3138C52.5319 45.3138 53.2743 45.8375 53.6196 46.5182H53.6887C54.1117 45.8462 54.9059 45.3138 55.8469 45.3138C57.4009 45.3138 58.3332 46.3349 58.3332 48.1241V52.3222H55.9505V48.5518C55.9505 47.7837 55.6138 47.391 55.0354 47.391C54.3621 47.391 53.9304 47.8623 53.9304 48.7002V52.3222H51.5477V48.5518C51.5477 47.7837 51.211 47.391 50.6326 47.391C49.9592 47.391 49.5362 47.8623 49.5362 48.7002V52.3222H47.1535V52.3309Z" fill="#2A2A2A"/>
<path d="M68.831 52.3309L68.3821 50.5505H64.9375L64.4799 52.3309H61.9332L64.454 43.1667H68.9L71.4122 52.3309H68.8396H68.831ZM65.4641 48.4383H67.8382L67.0698 45.436H66.2238L65.4641 48.4383Z" fill="#2A2A2A"/>
<path d="M71.6108 50.1141H73.8899C73.9503 50.4806 74.2784 50.7425 74.9863 50.7425C75.6597 50.7425 75.9014 50.5417 75.9014 50.2974C75.9014 49.3286 71.8525 50.0442 71.8525 47.4259C71.8525 46.3175 72.8453 45.3051 74.9604 45.3051C77.3431 45.3051 78.2668 46.623 78.215 47.6092H75.9359C75.8841 47.3124 75.6424 47.0768 75.0467 47.0768C74.4856 47.0768 74.3129 47.2775 74.3129 47.4957C74.3129 48.3511 78.3532 47.7052 78.3532 50.3061C78.3532 51.4494 77.3172 52.488 75.0381 52.488C72.595 52.488 71.6194 51.2225 71.6194 50.1053L71.6108 50.1141Z" fill="#2A2A2A"/>
<path d="M78.9575 50.1141H81.2366C81.297 50.4806 81.6251 50.7425 82.333 50.7425C83.0064 50.7425 83.2481 50.5417 83.2481 50.2974C83.2481 49.3286 79.1992 50.0442 79.1992 47.4259C79.1992 46.3175 80.192 45.3051 82.3071 45.3051C84.6898 45.3051 85.6135 46.623 85.5617 47.6092H83.2826C83.2308 47.3124 82.9891 47.0768 82.3934 47.0768C81.8323 47.0768 81.6596 47.2775 81.6596 47.4957C81.6596 48.3511 85.6999 47.7052 85.6999 50.3061C85.6999 51.4494 84.6639 52.488 82.3848 52.488C79.9416 52.488 78.9661 51.2225 78.9661 50.1053L78.9575 50.1141Z" fill="#2A2A2A"/>
<path d="M93.8667 49.5031H88.7905C88.9459 50.2188 89.4207 50.629 90.1372 50.629C90.7416 50.629 91.0782 50.4021 91.3027 50.053H93.7372C93.4092 51.3447 92.1228 52.4968 90.1286 52.4968C87.9531 52.4968 86.3646 50.9694 86.3646 48.9096C86.3646 46.8499 87.9531 45.3138 90.1286 45.3138C92.1833 45.3138 93.8667 46.6579 93.8667 49.058V49.5031ZM88.8078 48.2201H91.4495C91.2941 47.6354 90.8538 47.1903 90.1459 47.1903C89.438 47.1903 88.9977 47.5568 88.8164 48.2201H88.8078Z" fill="#2A2A2A"/>
<path d="M97.8465 50.3148H99.7112V52.3309H95.4638V47.487H94.1602V45.6542H95.4638V43.8388H97.8465V45.6542H99.435V47.487H97.8465V50.3148Z" fill="#2A2A2A"/>
<path d="M100.039 50.1141H102.318C102.379 50.4806 102.707 50.7425 103.415 50.7425C104.088 50.7425 104.33 50.5417 104.33 50.2974C104.33 49.3286 100.281 50.0442 100.281 47.4259C100.281 46.3175 101.274 45.3051 103.389 45.3051C105.772 45.3051 106.695 46.623 106.644 47.6092H104.364C104.313 47.3124 104.071 47.0768 103.475 47.0768C102.914 47.0768 102.741 47.2775 102.741 47.4957C102.741 48.3511 106.782 47.7052 106.782 50.3061C106.782 51.4494 105.746 52.488 103.467 52.488C101.023 52.488 100.048 51.2225 100.048 50.1053L100.039 50.1141Z" fill="#2A2A2A"/>
<path d="M115.51 44.8512H113.541V45.7414H115.277V47.487H113.619V52.3309H111.236V47.487H109.933V45.6542H111.236V43.0533H115.51V44.8599V44.8512Z" fill="#2A2A2A"/>
<path d="M115.501 48.9096C115.501 46.8062 117.081 45.3138 119.282 45.3138C121.484 45.3138 123.046 46.7888 123.046 48.9096C123.046 51.0305 121.484 52.4968 119.282 52.4968C117.081 52.4968 115.501 51.0043 115.501 48.9096ZM120.638 48.9096C120.638 47.967 120.12 47.3648 119.282 47.3648C118.445 47.3648 117.918 47.967 117.918 48.9096C117.918 49.8522 118.436 50.437 119.282 50.437C120.128 50.437 120.638 49.8348 120.638 48.9096Z" fill="#2A2A2A"/>
<path d="M124.082 52.3309V45.4883H126.318V46.5269H126.387C126.681 45.82 127.225 45.3836 128.243 45.3836H128.943V47.6092H127.829C126.983 47.6092 126.465 48.1416 126.465 49.1016V52.3397H124.082V52.3309Z" fill="#2A2A2A"/>
<path d="M131.904 47.7488C131.904 44.9996 134.053 42.9485 136.859 42.9485C139.466 42.9485 141.193 44.4759 141.633 46.5357H138.862C138.482 45.7065 137.809 45.2876 136.85 45.2876C135.53 45.2876 134.545 46.2826 134.545 47.7488C134.545 49.2151 135.53 50.2101 136.85 50.2101C137.878 50.2101 138.577 49.7039 138.922 48.7525H141.694C141.21 51.0043 139.432 52.5491 136.85 52.5491C134.045 52.5491 131.895 50.4806 131.895 47.7488H131.904Z" fill="#2A2A2A"/>
<path d="M142.617 52.3309V45.4883H144.853V46.5269H144.922C145.216 45.82 145.76 45.3836 146.778 45.3836H147.478V47.6092H146.364C145.518 47.6092 145 48.1416 145 49.1016V52.3397H142.617V52.3309Z" fill="#2A2A2A"/>
<path d="M155.187 49.5031H150.111C150.266 50.2188 150.741 50.629 151.457 50.629C152.062 50.629 152.398 50.4021 152.623 50.053H155.057C154.729 51.3447 153.443 52.4968 151.449 52.4968C149.273 52.4968 147.685 50.9694 147.685 48.9096C147.685 46.8499 149.273 45.3138 151.449 45.3138C153.504 45.3138 155.187 46.6579 155.187 49.058V49.5031ZM150.128 48.2201H152.77C152.614 47.6354 152.174 47.1903 151.466 47.1903C150.758 47.1903 150.318 47.5568 150.137 48.2201H150.128Z" fill="#2A2A2A"/>
<path d="M155.878 48.9096C155.878 46.6491 157.362 45.3138 158.942 45.3138C160.03 45.3138 160.729 45.8462 161.066 46.3873H161.135V45.4796H163.371V52.3222H161.135V51.4145H161.066C160.729 51.9906 160.03 52.488 158.942 52.488C157.362 52.488 155.878 51.1527 155.878 48.9009V48.9096ZM160.988 48.9096C160.988 47.9408 160.488 47.3299 159.659 47.3299C158.83 47.3299 158.295 47.9496 158.295 48.9096C158.295 49.8697 158.787 50.4806 159.659 50.4806C160.531 50.4806 160.988 49.861 160.988 48.9096Z" fill="#2A2A2A"/>
<path d="M167.955 50.3148H169.82V52.3309H165.572V47.487H164.269V45.6542H165.572V43.8388H167.955V45.6542H169.544V47.487H167.955V50.3148Z" fill="#2A2A2A"/>
<path d="M170.83 43.542C170.83 42.8525 171.348 42.3201 172.09 42.3201C172.833 42.3201 173.342 42.8438 173.342 43.542C173.342 44.2403 172.841 44.7465 172.09 44.7465C171.339 44.7465 170.83 44.2403 170.83 43.542ZM170.899 52.3309V45.4883H173.282V52.3309H170.899Z" fill="#2A2A2A"/>
<path d="M175.82 52.3309L174.162 45.4883H176.58L177.607 50.2886H178.28L179.308 45.4883H181.699L180.059 52.3309H175.828H175.82Z" fill="#2A2A2A"/>
<path d="M189.512 49.5031H184.436C184.591 50.2188 185.066 50.629 185.782 50.629C186.387 50.629 186.723 50.4021 186.948 50.053H189.382C189.054 51.3447 187.768 52.4968 185.774 52.4968C183.598 52.4968 182.01 50.9694 182.01 48.9096C182.01 46.8499 183.598 45.3138 185.774 45.3138C187.828 45.3138 189.512 46.6579 189.512 49.058V49.5031ZM184.453 48.2201H187.095C186.939 47.6354 186.499 47.1903 185.791 47.1903C185.083 47.1903 184.643 47.5568 184.461 48.2201H184.453Z" fill="#2A2A2A"/>
<path d="M190.142 50.1141H192.421C192.49 50.4806 192.81 50.7425 193.526 50.7425C194.2 50.7425 194.441 50.5417 194.441 50.2974C194.441 49.3286 190.392 50.0442 190.392 47.4259C190.392 46.3175 191.385 45.3051 193.5 45.3051C195.883 45.3051 196.807 46.623 196.746 47.6092H194.467C194.415 47.3124 194.174 47.0768 193.569 47.0768C193.017 47.0768 192.835 47.2775 192.835 47.4957C192.835 48.3511 196.876 47.7052 196.876 50.3061C196.876 51.4494 195.84 52.488 193.561 52.488C191.118 52.488 190.142 51.2225 190.142 50.1053V50.1141Z" fill="#2A2A2A"/>
<path d="M210.516 46.8324L207.814 49.2675L210.378 52.3309H207.503L206.355 50.9694L205.336 51.8247C204.775 52.2786 204.041 52.5578 203.135 52.5578C201.46 52.5578 200.338 51.2487 200.338 49.9046C200.338 48.8311 200.951 47.9147 202.03 47.2077L202.772 46.7364L201.874 45.6891V43.1755H208.358V45.3574H204.749V45.6192L206.519 47.7401L207.555 46.8324H210.516ZM205.094 49.4857L203.972 48.1503L203.402 48.5431C202.85 48.9358 202.643 49.2326 202.643 49.6428C202.643 50.053 202.979 50.4283 203.497 50.4283C203.894 50.4283 204.153 50.3061 204.499 50.0268L205.103 49.4857H205.094Z" fill="#2A2A2A"/>
<path d="M213.382 47.7488C213.382 44.9996 215.532 42.9485 218.346 42.9485C220.945 42.9485 222.68 44.4759 223.12 46.5357H220.349C219.969 45.7065 219.296 45.2876 218.337 45.2876C217.017 45.2876 216.032 46.2826 216.032 47.7488C216.032 49.2151 217.017 50.2101 218.337 50.2101C219.356 50.2101 220.064 49.7039 220.409 48.7525H223.18C222.706 51.0043 220.919 52.5491 218.337 52.5491C215.532 52.5491 213.373 50.4806 213.373 47.7488H213.382Z" fill="#2A2A2A"/>
<path d="M223.733 48.9096C223.733 46.8062 225.313 45.3138 227.514 45.3138C229.716 45.3138 231.278 46.7888 231.278 48.9096C231.278 51.0305 229.716 52.4968 227.514 52.4968C225.313 52.4968 223.733 51.0043 223.733 48.9096ZM228.87 48.9096C228.87 47.967 228.352 47.3648 227.514 47.3648C226.677 47.3648 226.15 47.967 226.15 48.9096C226.15 49.8522 226.668 50.437 227.514 50.437C228.36 50.437 228.87 49.8348 228.87 48.9096Z" fill="#2A2A2A"/>
<path d="M231.952 48.9096C231.952 46.6491 233.437 45.3138 235.034 45.3138C235.992 45.3138 236.674 45.7589 237.002 46.2389H237.071V43.1667H239.454V52.3309H237.218V51.4232H237.149C236.812 51.9993 236.113 52.4967 235.042 52.4967C233.445 52.4967 231.96 51.1614 231.96 48.9096H231.952ZM237.062 48.9096C237.062 47.9408 236.562 47.3299 235.733 47.3299C234.904 47.3299 234.369 47.9496 234.369 48.9096C234.369 49.8697 234.861 50.4806 235.733 50.4806C236.605 50.4806 237.062 49.861 237.062 48.9096Z" fill="#2A2A2A"/>
<path d="M247.992 49.5031H242.916C243.071 50.2188 243.546 50.629 244.262 50.629C244.875 50.629 245.203 50.4021 245.428 50.053H247.862C247.534 51.3447 246.239 52.4968 244.254 52.4968C242.078 52.4968 240.481 50.9694 240.481 48.9096C240.481 46.8499 242.07 45.3138 244.254 45.3138C246.308 45.3138 247.992 46.6579 247.992 49.058V49.5031ZM242.933 48.2201H245.575C245.419 47.6354 244.979 47.1903 244.271 47.1903C243.563 47.1903 243.123 47.5568 242.941 48.2201H242.933Z" fill="#2A2A2A"/>
<path d="M249.045 52.3309V45.4883H251.281V46.5269H251.35C251.644 45.82 252.187 45.3836 253.206 45.3836H253.905V47.6092H252.792C251.954 47.6092 251.428 48.1416 251.428 49.1016V52.3397H249.045V52.3309Z" fill="#2A2A2A"/>
<path d="M254.302 50.1141H256.582C256.642 50.4806 256.97 50.7425 257.678 50.7425C258.351 50.7425 258.602 50.5417 258.602 50.2974C258.602 49.3286 254.544 50.0442 254.544 47.4259C254.544 46.3175 255.546 45.3051 257.652 45.3051C260.035 45.3051 260.959 46.623 260.907 47.6092H258.628C258.576 47.3124 258.334 47.0768 257.738 47.0768C257.177 47.0768 256.996 47.2775 256.996 47.4957C256.996 48.3511 261.036 47.7052 261.036 50.3061C261.036 51.4494 260 52.488 257.721 52.488C255.278 52.488 254.302 51.2225 254.302 50.1053V50.1141Z" fill="#2A2A2A"/>
<path d="M41.3435 2.76575L25.2429 19.7762L41.3435 36.7867H27.1163L12.1639 20.9458V36.7867H0.198559V2.76575H12.1639V18.6067L27.1163 2.76575H41.3435ZM90.0854 14.8712C90.0854 17.7863 89.1617 20.3523 87.3229 22.5779C85.4754 24.7947 83.179 26.1824 80.4251 26.7323L90.0854 36.7954H76.6266L67.1562 26.9767H59.8008V17.891H75.3316C76.1 17.891 76.7561 17.6117 77.3 17.0619C77.8438 16.512 78.1201 15.8487 78.1201 15.0719C78.1201 14.557 77.9906 14.077 77.7316 13.6406C77.4726 13.2042 77.1359 12.8551 76.7215 12.5933C76.3072 12.3314 75.841 12.2005 75.3316 12.2005H56.4426V36.7867H44.4773V2.76575H78.1287C81.4265 2.76575 84.2495 3.95273 86.5891 6.31796C88.9286 8.6832 90.0941 11.5372 90.0941 14.8712H90.0854ZM133.302 11.4674H106.385V15.456H129.935V24.1052H106.385V28.0938H133.302V36.7954H94.4106V2.76575H133.302V11.4674ZM225.546 2.76575V13.3613H210.404V36.7867H198.438V13.3613H183.296V2.76575H225.546ZM241.172 36.7867H229.206V2.76575H241.172V36.7867ZM282.075 2.76575H296.302L272.363 36.7867H246.93V2.76575H259.284V35.1808L282.075 2.76575ZM337.835 11.4674H310.918V15.456H334.469V24.1052H310.918V28.0938H337.835V36.7954H298.944V2.76575H337.835V11.4674ZM176.182 19.7762C176.735 19.4097 177.244 18.9907 177.71 18.5107C178.531 17.6641 179.169 16.6866 179.636 15.5694C180.102 14.4523 180.335 13.274 180.335 12.0434C180.335 9.48615 179.437 7.29548 177.641 5.48009C175.846 3.66471 173.687 2.75702 171.149 2.75702H145.803H147.262C144.732 2.75702 142.566 3.66471 140.77 5.48009C138.974 7.29548 138.076 9.47743 138.076 12.0434C138.076 13.8937 138.577 15.5782 139.587 17.0968C140.312 18.1878 141.193 19.0693 142.22 19.7675C141.668 20.1341 141.158 20.553 140.692 21.033C139.872 21.8796 139.233 22.8571 138.767 23.9743C138.301 25.0915 138.068 26.2697 138.068 27.5003C138.068 30.0576 138.966 32.2483 140.761 34.0636C142.557 35.879 144.715 36.7867 147.253 36.7867H171.141C173.67 36.7867 175.837 35.879 177.633 34.0636C179.428 32.2483 180.326 30.0663 180.326 27.5003C180.326 25.65 179.826 23.9656 178.816 22.4469C178.09 21.356 177.21 20.4745 176.182 19.7762ZM166.867 11.0746C167.472 11.0746 167.99 11.2841 168.404 11.703C168.818 12.1219 169.026 12.6369 169.026 13.2304C169.026 13.8239 168.818 14.3475 168.404 14.7839C167.99 15.2203 167.472 15.4385 166.867 15.4385H151.129C150.741 15.4385 150.387 15.3425 150.05 15.1505C149.714 14.9585 149.446 14.6879 149.256 14.3475C149.066 14.0072 148.971 13.6406 148.971 13.2566C148.971 12.6369 149.178 12.1219 149.593 11.703C150.007 11.2841 150.525 11.0746 151.129 11.0746H166.867ZM151.138 28.4778C150.534 28.4778 150.016 28.2684 149.601 27.8494C149.187 27.4305 148.98 26.9156 148.98 26.3221C148.98 25.7286 149.187 25.2049 149.601 24.7685C150.016 24.3321 150.534 24.1139 151.138 24.1139H166.876C167.265 24.1139 167.618 24.21 167.955 24.402C168.292 24.594 168.559 24.8645 168.749 25.2049C168.939 25.5453 169.034 25.9119 169.034 26.2959C169.034 26.9156 168.827 27.4305 168.413 27.8494C167.998 28.2684 167.48 28.4778 166.876 28.4778H151.138Z" fill="url(#paint0_linear_56_1016)"/>
<path d="M319.611 52.4968H316.736V49.7737H319.611V52.4968Z" fill="#2A2A2A"/>
<path d="M324.636 52.4967H321.761V44.3188H324.636V52.4967Z" fill="#2A2A2A"/>
<path d="M334.305 44.3188C335.038 44.3188 335.712 44.5021 336.333 44.8687C336.955 45.2352 337.447 45.7327 337.81 46.3611C338.172 46.9895 338.354 47.6703 338.354 48.4121C338.354 49.154 338.172 49.8348 337.81 50.4632C337.447 51.0916 336.955 51.5891 336.333 51.9556C335.712 52.3222 335.038 52.5055 334.305 52.5055H330.618C329.505 52.5055 328.546 52.104 327.761 51.3098C326.975 50.5155 326.578 49.5468 326.578 48.4209C326.578 47.295 326.975 46.3262 327.761 45.532C328.546 44.7377 329.505 44.3363 330.618 44.3363H334.305V44.3188ZM333.856 50.0442C334.305 50.0442 334.684 49.8871 335.004 49.5642C335.323 49.2413 335.479 48.8573 335.479 48.4121C335.479 47.967 335.323 47.5743 335.004 47.2513C334.684 46.9284 334.305 46.7713 333.856 46.7713H331.067C330.618 46.7713 330.238 46.9284 329.928 47.2513C329.617 47.5743 329.453 47.9583 329.453 48.4121C329.453 48.866 329.608 49.25 329.928 49.5642C330.247 49.8871 330.627 50.0442 331.067 50.0442H333.856Z" fill="#2A2A2A"/>
</g>
<path d="M343.876 9H342.346V4.14H340.393V2.7H345.829V4.14H343.876V9ZM348.209 9H346.715V2.7H349.244L350.432 6.255H350.657L351.863 2.7H354.329V9H352.835V4.275H352.61L351.485 7.605H349.559L348.434 4.275H348.209V9Z" fill="#6F6F6F"/>
<defs>
<linearGradient id="paint0_linear_56_1016" x1="0.198559" y1="19.7762" x2="337.835" y2="19.7762" gradientUnits="userSpaceOnUse">
<stop stop-color="#2A2A2A"/>
<stop offset="0.2" stop-color="#674697"/>
<stop offset="0.4" stop-color="#258FDA"/>
<stop offset="0.56" stop-color="#DDABD4"/>
<stop offset="0.81" stop-color="#865998"/>
<stop offset="1" stop-color="#2A2A2A"/>
</linearGradient>
<clipPath id="clip0_56_1016">
<rect width="350.327" height="49.7834" fill="white" transform="translate(0 2.76575)"/>
</clipPath>
</defs>
</svg>
